<svg width="977" height="1080" viewBox="0 0 977 1080" fill="none" xmlns="http://www.w3.org/2000/svg">
<path d="M511.55 1048.15C511.55 1030.55 527.899 1016.29 548.067 1016.29L926.516 1016.29C954.018 1016.29 976.312 996.843 976.312 972.853L976.312 567.431C976.312 543.44 954.018 523.992 926.516 523.992L50.108 523.992C22.6064 523.992 0.312012 543.44 0.312012 567.431L0.31201 1036.56C0.31201 1060.55 22.6064 1080 50.1079 1080L475.033 1080C495.201 1080 511.55 1065.74 511.55 1048.15Z" fill="#131F5E" fill-opacity="0.2"/>
<path d="M511.55 1017.34C511.55 1000.77 524.98 987.341 541.546 987.341L931.822 987.341C956.393 987.341 976.312 967.423 976.312 942.852L976.312 568.252C976.312 543.681 956.393 523.762 931.822 523.762L44.8018 523.762C20.2308 523.762 0.312013 543.681 0.312013 568.252L0.312012 1002.84C0.312012 1027.41 20.2308 1047.33 44.8018 1047.33L481.554 1047.33C498.121 1047.33 511.55 1033.9 511.55 1017.34Z" fill="#B7E5FF"/>
<path d="M511.55 30.6187C511.55 47.185 524.98 60.6147 541.546 60.6147L931.822 60.6147C956.393 60.6147 976.312 80.5335 976.312 105.105L976.312 479.704C976.312 504.275 956.393 524.194 931.822 524.194L44.8018 524.194C20.2308 524.194 0.31201 504.275 0.31201 479.704L0.312012 45.1124C0.312012 20.5413 20.2308 0.622559 44.8018 0.622559L481.554 0.62256C498.121 0.62256 511.55 14.0523 511.55 30.6187Z" fill="#B7E5FF"/>
</svg>
