<svg width="498" height="316" viewBox="0 0 498 316" fill="none" xmlns="http://www.w3.org/2000/svg">
<path d="M180.219 75.2018L180.219 79.3034C179.242 79.8893 178.07 79.4987 177.094 79.4987C175.922 79.694 174.945 79.4987 173.774 79.4987C172.797 79.694 171.625 79.3034 170.453 79.8893L170.453 83.9909C169.672 84.5768 168.891 84.3815 168.109 84.3815L165.57 84.3815L165.57 98.8348L161.273 98.8348L160.883 99.2254L160.883 122.663L160.492 123.054L156.391 123.054L156 123.444L156 146.882C156 147.077 155.805 147.077 155.609 147.273L151.508 147.273C151.508 147.468 151.312 147.468 151.117 147.859L151.117 166.414C150.531 166.999 149.555 166.609 148.773 166.804L146.625 166.804C146.039 167.976 146.43 168.953 146.234 170.124L146.234 190.632C145.453 191.218 144.672 190.828 143.89 191.023L142.719 191.023C142.328 191.023 141.937 191.023 141.547 191.218L141.547 224.617C142.328 225.203 143.109 224.812 143.89 224.812L145.844 224.812C146.625 225.398 146.234 226.375 146.234 227.156C146.43 227.937 146.234 228.719 146.234 229.5C141.351 229.891 119.086 229.891 93.304 229.695C92.7181 228.914 93.1087 228.133 93.1087 227.352C92.9134 226.57 93.1087 225.789 93.1087 224.812L102.484 224.812C103.07 223.25 102.484 221.687 102.874 219.93L112.054 219.93C112.25 219.734 112.445 219.734 112.445 219.539L112.445 210.75C113.812 209.773 115.57 210.75 116.937 210.164C117.132 209.969 117.132 209.969 117.132 209.773C117.328 209.773 117.328 209.578 117.328 209.383L117.328 186.531C117.914 185.75 118.89 186.14 119.476 186.14C120.257 185.945 121.234 186.336 122.015 185.75L122.015 162.312C122.796 161.726 123.773 161.921 124.554 161.921L126.507 161.921C127.093 161.335 126.898 160.749 126.898 160.163L126.898 148.64C126.703 148.249 126.312 147.859 125.922 147.663C121.82 147.273 69.8663 147.273 59.5147 147.468C59.5147 147.468 59.3194 147.468 59.1241 147.663L59.1241 166.218C58.9287 166.414 58.9287 166.609 58.7334 166.804L54.8271 166.804C54.4365 166.999 54.2412 166.999 54.2412 167.195L54.2412 185.75C52.874 186.531 51.1162 185.75 49.749 186.336C49.5537 186.336 49.3583 186.531 49.3583 186.531L49.3583 219.539C49.9443 219.93 50.3349 220.125 50.9209 219.93L51.7021 219.93C52.4834 220.125 53.2646 219.734 54.2412 220.32L54.2412 224.422C55.0225 225.203 55.999 224.812 56.585 224.812C57.3662 225.008 58.3428 224.617 59.1241 225.203L59.1241 229.305L58.7334 229.695L6.1939 229.695C5.41264 229.109 5.99859 228.133 5.80327 227.352L5.80327 225.008C6.97516 224.617 8.14704 225.008 9.12361 224.812L15.3737 224.812C15.7643 223.25 15.3737 221.687 15.569 220.125L19.8659 220.125L20.4518 219.539L20.4518 205.867C21.819 205.086 23.5769 205.867 24.9441 205.281C25.1394 205.281 25.1394 205.086 25.1394 205.086C25.3347 204.89 25.1394 204.695 25.1394 204.695L25.1394 181.648C26.7019 180.867 28.4597 181.648 30.0222 181.062L30.0222 162.117C31.5848 161.531 33.3426 162.312 34.9051 161.726L34.9051 138.093L35.2957 137.702L39.3973 137.702C39.3973 137.702 39.3973 137.507 39.7879 137.116L39.7879 114.069C39.7879 113.874 39.7879 113.874 39.9833 113.679C40.3739 113.483 40.7645 113.483 41.1551 113.483L44.2802 113.483C44.6708 113.093 44.6708 112.897 44.6708 112.702L44.6708 80.6706C44.2802 80.4752 43.8895 80.0846 43.1083 79.4987L40.1786 79.4987C39.9833 79.3034 39.7879 79.3034 39.7879 79.108L39.7879 75.2018C39.7879 75.0064 39.9833 74.8111 39.9833 74.8111L93.1087 74.8111L93.1087 79.3034C91.9369 79.8893 90.9603 79.4987 89.7884 79.4987C88.8118 79.694 87.6399 79.4987 86.6634 79.4987C85.4915 79.694 84.5149 79.3034 83.343 79.8893L83.343 83.9909L82.9524 84.3815L73.9679 84.3815C73.7726 84.7721 73.5773 84.9675 73.5773 85.1628L73.5773 98.8348C72.0148 99.0301 70.6476 98.8348 69.2804 99.0301C69.0851 99.0301 68.8898 99.2254 68.8898 99.2254L68.8898 117.78C68.6945 117.976 68.6945 118.171 68.4991 118.366L64.3975 118.366C64.2022 118.562 64.0069 118.562 64.0069 118.757L64.0069 141.999C64.3975 142.585 64.7882 142.585 65.3741 142.585L130.414 142.585C130.804 142.585 131.195 142.39 131.39 142.39C131.586 142.195 131.781 142.195 131.781 141.999L131.781 118.757C132.367 117.976 133.343 118.366 134.125 118.366C134.906 118.171 135.687 118.366 136.273 118.366C136.468 117.976 136.468 117.976 136.664 117.78L136.664 94.3426C138.226 93.7566 139.789 94.5379 141.351 93.9519L141.351 90.4363C140.961 90.0456 140.765 89.8503 140.375 89.2644L137.054 89.2644C136.859 89.0691 136.664 88.6784 136.664 88.4831L136.664 80.8659C136.273 80.4752 135.883 80.0846 135.492 79.4987L127.289 79.4987C127.093 79.3034 126.898 79.3034 126.898 79.108L126.898 75.2018C127.093 75.0064 127.093 74.8111 127.289 74.8111L179.828 74.8111L180.219 75.2018Z" fill="#131F5E"/>
<path d="M178.475 230.731L178.475 219.207L166.952 219.207L166.952 173.309L178.475 173.309L178.475 161.785L189.901 161.785L189.901 184.734L235.898 184.734L235.898 196.258L189.901 196.258L189.901 207.782L201.425 207.782L201.425 219.207L224.374 219.207L224.374 230.731L178.475 230.731ZM189.901 161.785L189.901 150.261L201.425 150.261L201.425 161.785L189.901 161.785ZM235.898 184.734L235.898 161.785L224.374 161.785L224.374 150.261L201.425 150.261L201.425 138.836L235.898 138.836L235.898 150.261L247.421 150.261L247.421 184.734L235.898 184.734Z" fill="#131F5E"/>
<path d="M323.057 67.1939C323.643 68.1704 323.253 69.147 323.253 69.9283C323.448 70.9048 323.253 71.8814 323.253 72.858C323.253 73.6392 323.253 74.6158 323.253 75.5924C321.885 75.5924 320.714 75.5924 319.542 75.5924C319.346 75.7877 319.151 75.7877 319.151 75.983L319.151 92.3894C317.784 92.3894 316.417 92.3894 315.049 92.5847L315.049 112.897C313.682 113.483 312.315 112.702 310.948 113.288C310.948 120.124 310.948 126.765 310.948 133.601C309.581 134.187 308.018 133.601 306.651 133.991C306.651 140.827 306.651 147.663 306.651 154.499C306.065 154.89 305.284 154.695 304.698 154.695C304.112 154.695 303.526 154.695 302.94 154.695C302.354 155.085 302.549 155.867 302.549 156.257L302.549 171.296C301.182 171.296 299.815 171.296 298.838 171.296C298.643 171.492 298.448 171.492 298.448 171.687C298.448 171.687 298.448 171.882 298.448 172.078C298.448 178.523 298.448 185.164 298.252 191.804C298.252 191.804 298.252 192 298.057 192.195C296.885 192.195 295.713 192.195 294.541 192.195C294.346 192.39 294.346 192.39 294.151 192.586L294.151 220.906C294.151 221.101 294.346 221.101 294.541 221.297C295.713 221.297 296.885 221.297 298.057 221.297C298.643 222.078 298.252 222.859 298.252 223.445C298.448 224.031 298.448 224.617 298.448 225.203C299.62 225.984 300.987 225.203 302.354 225.594C302.354 225.594 302.354 225.789 302.549 225.984L302.549 229.305C302.354 229.5 302.354 229.5 302.159 229.695L252.744 229.695C252.744 229.5 252.549 229.305 252.549 229.305C252.549 228.133 252.549 226.961 252.549 225.789C253.916 225.203 255.283 225.789 256.65 225.398C256.65 224.031 256.65 222.859 256.65 221.687C256.846 221.492 257.041 221.297 257.041 221.297L264.658 221.297C265.244 220.906 265.049 220.32 265.049 219.734C265.049 217.586 265.049 215.437 265.049 213.094C266.416 213.094 267.588 213.094 268.76 213.094C268.955 212.898 269.151 212.898 269.151 212.703L269.151 196.883C269.151 196.687 269.346 196.687 269.541 196.492C270.713 196.492 271.885 196.492 273.057 196.492C273.252 196.297 273.252 196.101 273.252 196.101C273.447 195.906 273.447 195.906 273.447 195.711L273.447 175.984C273.447 175.789 273.447 175.789 273.643 175.593C274.815 175.593 275.987 175.593 277.158 175.593C277.354 175.398 277.549 175.203 277.549 175.203L277.549 155.085C278.135 154.499 278.916 154.89 279.502 154.695C280.088 154.695 280.869 154.695 281.455 154.695C281.651 154.499 281.651 154.499 281.651 154.304L281.651 134.187C283.018 133.601 284.385 134.187 285.752 133.796C285.752 128.327 285.752 122.858 285.752 117.585C287.119 116.999 288.682 117.585 290.049 116.999C290.049 110.163 290.049 103.522 290.049 96.6863C290.83 96.2957 291.416 96.491 292.198 96.491C292.784 96.491 293.174 96.491 293.76 96.491C293.955 96.2957 293.955 96.2957 294.151 96.1004L294.151 89.2644C293.955 88.8738 293.565 88.6784 293.174 88.0925C292.393 88.0925 291.221 88.0925 290.049 88.0925C289.854 87.1159 290.049 85.944 290.049 84.9675C289.659 84.7721 289.463 84.3815 288.877 83.9909C286.729 83.9909 284.19 83.9909 282.041 83.9909C281.846 83.6003 281.651 83.6003 281.651 83.6003C281.651 82.4284 281.651 81.2565 281.651 80.0846C283.018 79.4987 284.385 80.0846 285.752 79.694C285.752 78.3268 285.752 77.1549 285.752 75.983C285.948 75.7877 286.143 75.5924 286.143 75.5924L298.057 75.5924C298.838 74.4205 298.057 72.858 298.448 71.6861C298.448 71.6861 298.643 71.6861 298.838 71.4908L314.854 71.4908C315.245 70.1236 314.854 68.7564 315.049 67.5845C315.245 67.3892 315.44 67.3892 315.44 67.3892C317.979 67.1939 320.518 67.1939 323.057 67.1939Z" fill="#131F5E"/>
<path d="M334.313 194.287L334.118 89.4032C330.602 87.8407 327.672 84.5204 327.672 78.075C327.672 75.9266 328.454 72.4109 330.993 69.6765C332.751 68.114 335.094 66.9421 338.415 66.9421L342.907 64.989C344.665 64.403 346.227 63.6217 347.79 63.0358C349.548 62.4499 351.891 61.6686 354.626 61.6686C357.751 61.6686 360.876 62.8405 363.22 64.989L377.087 78.8563C378.845 80.8094 380.212 83.3485 380.212 87.0595L380.212 208.154C384.899 209.717 388.22 216.162 388.22 219.678C388.22 224.561 383.337 231.787 377.868 231.787L350.329 231.787C347.985 231.787 345.837 230.615 344.274 228.858L330.407 214.99C327.672 212.451 326.11 208.545 326.11 205.811C326.11 202.1 329.43 195.654 334.313 194.287ZM337.829 202.685L336.461 202.685C334.313 202.685 334.313 209.131 336.461 209.131L364.001 209.131C366.149 209.131 366.149 202.685 364.001 202.685L362.634 202.685C361.071 202.685 357.555 202.685 357.555 197.607L357.555 73.1922C357.555 71.0437 356.384 70.4578 354.626 70.4578C350.524 70.4578 342.712 75.7312 338.415 75.7312C336.852 75.7312 336.461 77.0984 336.461 78.075C336.461 79.0516 336.852 81.5907 337.829 81.5907L341.149 81.5907C342.126 81.5907 342.907 82.7626 342.907 84.1297L342.907 197.607C342.907 202.685 339.391 202.685 337.829 202.685Z" fill="#131F5E"/>
<path d="M497.063 181.274L493.575 181.274C493.025 182.192 493.208 183.11 493.208 183.844L493.208 187.699C493.208 188.249 493.208 188.616 493.025 189.167L489.537 189.167C488.986 190.085 489.353 191.003 489.353 191.737C489.17 192.655 489.353 193.572 489.353 194.307C489.17 195.224 489.537 196.142 489.17 197.06L485.682 197.06C485.499 197.244 485.315 197.244 485.315 197.427L485.315 204.586C484.764 205.137 484.214 204.77 483.48 204.77C482.929 204.953 482.195 204.77 481.644 204.77C481.277 205.504 481.46 206.238 481.46 206.789L481.46 208.441C480.91 208.991 480.175 208.624 479.625 208.808C478.891 208.808 478.34 208.624 477.606 208.991L477.606 212.295C476.871 212.846 476.321 212.663 475.587 212.663L473.934 212.663C473.2 213.764 473.934 215.232 473.567 216.334C473.384 216.517 473.384 216.517 473.2 216.517L466.225 216.517C465.491 217.068 465.858 217.802 465.858 218.353L465.858 220.372C464.757 220.556 464.022 220.372 463.104 220.556L458.148 220.556C457.781 221.657 458.148 223.125 457.965 224.41L446.584 224.41C446.033 224.778 446.401 225.328 446.217 225.695L426.76 225.695C426.76 224.961 426.026 224.961 425.842 224.41L415.012 224.41L415.012 221.473L414.094 220.556C413.727 220.189 413.176 220.556 412.626 220.556C412.259 220.372 411.708 220.556 411.341 220.556C410.79 219.638 411.157 218.537 410.974 217.619C410.79 217.252 410.423 217.068 410.056 216.517L403.631 216.517C403.448 216.334 403.264 216.334 403.264 216.15L403.264 209.726C402.897 209.359 402.53 209.175 402.163 208.624L399.409 208.624L399.409 202.016L398.308 200.915C398.125 200.731 397.574 200.915 397.023 200.915L395.738 200.915C395.555 200.731 395.371 200.548 395.371 200.364L395.371 174.299C395.371 174.115 395.371 173.932 395.555 173.748C396.105 173.381 396.84 173.564 397.39 173.564L399.042 173.564C399.042 173.564 399.042 173.381 399.226 173.197L399.226 158.329C399.226 158.146 399.409 158.146 399.593 157.962L402.897 157.962C403.448 157.044 403.081 156.126 403.264 155.209C403.264 154.474 403.081 153.557 403.264 152.639C403.264 151.904 403.081 150.987 403.448 150.069L406.752 150.069C407.302 149.335 407.119 148.6 407.119 148.05L407.119 146.398C407.67 145.847 408.404 146.214 408.955 146.214C409.505 146.031 410.239 146.031 410.79 146.031C410.974 145.847 410.974 145.847 410.974 145.663L410.974 138.688C411.524 137.954 412.259 138.321 412.993 138.321L414.828 138.321L414.828 134.65C415.563 134.099 416.297 134.466 416.848 134.466C417.582 134.283 418.132 134.65 418.867 134.099L418.867 130.795C419.05 130.612 419.05 130.428 419.234 130.428L426.393 130.428C426.943 129.877 426.576 129.143 426.576 128.592C426.76 128.042 426.76 127.308 426.76 126.757C428.045 126.39 429.146 126.573 430.247 126.573C430.798 126.023 430.431 125.288 430.614 124.738C430.614 124.003 430.431 123.453 430.798 122.719L441.995 122.719C442.546 121.984 442.362 121.25 442.362 120.699L442.362 119.047C442.546 118.864 442.913 118.68 443.097 118.68L473.017 118.68L473.2 118.864C473.567 120.149 473.567 121.25 473.567 122.351C474.485 122.902 475.219 122.535 476.137 122.535C477.055 122.719 477.789 122.719 478.707 122.719L481.46 122.719L481.46 126.39C482.378 126.757 483.112 126.39 484.03 126.573L489.353 126.573L489.353 134.099C489.904 134.65 490.638 134.283 491.189 134.283C491.74 134.466 492.29 134.466 492.841 134.466C493.392 134.833 493.208 135.384 493.208 135.935L493.208 137.954C493.942 138.505 494.493 138.321 495.227 138.321C495.778 138.321 496.329 138.321 497.063 138.505L497.063 181.274ZM473.567 185.129L473.567 139.239C473.384 138.872 473.017 138.688 472.65 138.138L469.713 138.138L469.713 131.529C469.345 131.162 468.978 130.795 468.795 130.428C467.693 130.428 466.776 130.612 465.674 130.245L465.674 127.491C465.307 127.124 465.124 126.757 464.757 126.573C463.839 126.39 462.737 126.757 461.82 126.206L461.82 123.636C461.636 123.269 461.269 123.086 460.902 122.719L446.584 122.719C446.584 122.719 446.401 122.719 446.217 122.902L446.217 124.738C446.217 125.288 446.584 126.023 446.033 126.573C444.749 126.757 443.647 126.39 442.362 126.757L442.362 128.96C442.362 129.51 442.546 130.061 441.995 130.428L434.836 130.428C434.653 130.428 434.653 130.612 434.469 130.795L434.469 137.954C433.735 138.505 433.184 138.138 432.45 138.321C431.899 138.321 431.165 138.138 430.614 138.688L430.614 140.157C430.614 140.707 430.798 141.442 430.431 142.176L428.595 142.176C427.861 142.359 427.31 141.992 426.76 142.543L426.76 153.557L426.393 153.924L424.557 153.924C424.006 154.107 423.272 153.557 422.721 154.291L422.721 173.197L422.354 173.564L419.05 173.564C418.683 176.869 418.867 194.123 419.05 197.06L422.538 197.06C422.721 197.244 422.721 197.244 422.721 197.427L422.721 212.295L423.089 212.663C424.19 212.846 425.291 212.479 426.76 212.846C426.76 213.397 426.576 214.131 426.76 214.682C426.76 215.232 426.393 215.967 426.943 216.517C428.228 216.517 429.33 216.517 430.614 216.701L430.614 220.556L449.888 220.556C449.888 220.372 449.888 220.372 450.255 220.189L450.255 216.701C451.173 216.334 451.907 216.701 452.825 216.517C453.743 216.517 454.477 216.701 455.395 216.517C456.313 216.517 457.047 216.884 457.965 216.334L457.965 212.846C458.699 212.479 459.433 212.663 459.984 212.663C460.718 212.479 461.269 212.846 461.82 212.295L461.82 205.137C462.003 205.137 462.003 204.953 462.187 204.77C462.737 204.77 463.288 204.953 464.022 204.77C464.573 204.77 465.307 205.137 465.858 204.586L465.858 197.427C465.858 197.244 466.041 197.244 466.225 197.06L469.529 197.06C469.896 196.142 469.713 195.408 469.713 194.674L469.713 187.515C469.713 186.781 469.529 186.047 470.08 185.129L473.567 185.129Z" fill="#131F5E"/>
</svg>
