<svg width="566" height="574" viewBox="0 0 566 574" fill="none" xmlns="http://www.w3.org/2000/svg">
<path d="M282.861 9.33365e-07L289.834 247.268L380.956 17.2968L302.938 252.037L467.22 67.1011L313.621 261.001L531.247 143.406L320.593 273.078L565.315 237.007L323.015 286.811L565.315 336.616L320.593 300.545L531.247 430.217L313.621 312.621L467.22 506.521L302.938 321.585L380.956 556.326L289.834 326.355L282.861 573.623L275.888 326.355L184.766 556.326L262.784 321.585L98.5023 506.521L252.102 312.621L34.4752 430.217L245.129 300.545L0.407103 336.616L242.708 286.811L0.407104 237.007L245.129 273.078L34.4752 143.406L252.102 261.001L98.5023 67.1011L262.784 252.037L184.766 17.2968L275.888 247.268L282.861 9.33365e-07Z" fill="#FFF062"/>
</svg>
