<svg width="577" height="319" viewBox="0 0 577 319" fill="none" xmlns="http://www.w3.org/2000/svg">
<path d="M168.268 161.276L168.268 149.752L179.792 149.752L179.792 161.276L168.268 161.276ZM179.792 149.752L179.792 126.803L191.218 126.803L191.218 149.752L179.792 149.752ZM76.3729 115.377L76.3729 103.853L87.8964 103.853L87.8964 115.377L76.3729 115.377ZM202.741 69.3802L202.741 57.8566L214.265 57.8566L214.265 69.3802L202.741 69.3802ZM53.4234 230.221L53.4234 218.698L64.8493 218.698L64.8493 207.272L76.3729 207.272L76.3729 195.748L87.8964 195.748L87.8964 172.799L99.3223 172.799L99.3223 149.752L110.846 149.752L110.846 126.803L122.369 126.803L122.369 69.3802L110.846 69.3802L110.846 57.8566L87.8964 57.8566L87.8964 69.3802L76.3729 69.3802L76.3729 80.9037L64.8493 80.9037L64.8493 115.377L76.3729 115.377L76.3729 126.803L53.4234 126.803L53.4234 115.377L41.8999 115.377L41.8999 80.9037L53.4234 80.9037L53.4234 69.3802L64.8493 69.3802L64.8493 57.8566L76.3729 57.8566L76.3729 46.4307L133.795 46.4307L133.795 57.8566L145.319 57.8566L145.319 69.3802L156.745 69.3802L156.745 115.377L145.319 115.377L145.319 138.326L133.795 138.326L133.795 161.276L122.369 161.276L122.369 184.225L145.319 184.225L145.319 195.748L133.795 195.748L133.795 207.272L110.846 207.272L110.846 218.698L87.8964 218.698L87.8964 230.221L53.4234 230.221ZM145.319 230.221L145.319 218.698L156.745 218.698L156.745 184.225L145.319 184.225L145.319 172.799L156.745 172.799L156.745 161.276L168.268 161.276L168.268 195.748L179.792 195.748L179.792 184.225L191.218 184.225L191.218 172.799L202.741 172.799L202.741 149.752L214.265 149.752L214.265 126.803L225.691 126.803L225.691 103.853L237.214 103.853L237.214 69.3802L225.691 69.3802L225.691 57.8566L214.265 57.8566L214.265 46.4307L237.214 46.4307L237.214 57.8566L248.738 57.8566L248.738 69.3802L260.164 69.3802L260.164 92.3296L248.738 92.3296L248.738 115.377L237.214 115.377L237.214 138.326L225.691 138.326L225.691 161.276L214.265 161.276L214.265 184.225L202.741 184.225L202.741 195.748L191.218 195.748L191.218 207.272L179.792 207.272L179.792 218.698L168.268 218.698L168.268 230.221L145.319 230.221Z" fill="#131F5E"/>
<path d="M352.372 183.43L348.661 183.43C348.075 184.406 348.271 185.383 348.271 186.164L348.271 190.266C348.271 190.851 348.271 191.242 348.075 191.828L344.364 191.828C343.778 192.805 344.169 193.781 344.169 194.562C343.974 195.539 344.169 196.516 344.169 197.297C343.974 198.273 344.364 199.25 343.974 200.227L340.263 200.227C340.067 200.422 339.872 200.422 339.872 200.617L339.872 208.234C339.286 208.82 338.7 208.43 337.919 208.43C337.333 208.625 336.552 208.43 335.966 208.43C335.575 209.211 335.77 209.992 335.77 210.578L335.77 212.336C335.185 212.922 334.403 212.531 333.817 212.727C333.036 212.727 332.45 212.531 331.669 212.922L331.669 216.438C330.888 217.024 330.302 216.828 329.52 216.828L327.763 216.828C326.981 218 327.763 219.563 327.372 220.735C327.177 220.93 327.177 220.93 326.981 220.93L319.559 220.93C318.778 221.516 319.169 222.297 319.169 222.883L319.169 225.031C317.997 225.227 317.216 225.031 316.239 225.227L310.966 225.227C310.575 226.399 310.966 227.961 310.77 229.328L298.661 229.328C298.075 229.719 298.465 230.305 298.27 230.696L277.567 230.696C277.567 229.914 276.786 229.914 276.59 229.328L265.067 229.328L265.067 226.203L264.09 225.227C263.7 224.836 263.114 225.227 262.528 225.227C262.137 225.031 261.551 225.227 261.16 225.227C260.574 224.25 260.965 223.078 260.77 222.102C260.574 221.711 260.184 221.516 259.793 220.93L252.957 220.93C252.762 220.735 252.567 220.735 252.567 220.539L252.567 213.703C252.176 213.313 251.785 213.117 251.395 212.531L248.465 212.531L248.465 205.5L247.293 204.328C247.098 204.133 246.512 204.328 245.926 204.328L244.559 204.328C244.363 204.133 244.168 203.938 244.168 203.742L244.168 176.008C244.168 175.812 244.168 175.617 244.363 175.422C244.949 175.031 245.731 175.226 246.317 175.226L248.074 175.226C248.074 175.226 248.074 175.031 248.27 174.836L248.27 159.015C248.27 158.82 248.465 158.82 248.66 158.625L252.176 158.625C252.762 157.648 252.371 156.671 252.567 155.695C252.567 154.914 252.371 153.937 252.567 152.96C252.567 152.179 252.371 151.203 252.762 150.226L256.278 150.226C256.864 149.445 256.668 148.664 256.668 148.078L256.668 146.32C257.254 145.734 258.035 146.124 258.621 146.124C259.207 145.929 259.989 145.929 260.574 145.929C260.77 145.734 260.77 145.734 260.77 145.539L260.77 138.117C261.356 137.335 262.137 137.726 262.918 137.726L264.871 137.726L264.871 133.82C265.653 133.234 266.434 133.624 267.02 133.624C267.801 133.429 268.387 133.82 269.168 133.234L269.168 129.718C269.364 129.523 269.364 129.327 269.559 129.327L277.176 129.327C277.762 128.742 277.372 127.96 277.372 127.374C277.567 126.788 277.567 126.007 277.567 125.421C278.934 125.031 280.106 125.226 281.278 125.226C281.864 124.64 281.473 123.859 281.668 123.273C281.668 122.491 281.473 121.906 281.864 121.124L293.778 121.124C294.364 120.343 294.169 119.562 294.169 118.976L294.169 117.218C294.364 117.023 294.754 116.827 294.95 116.827L326.786 116.827L326.981 117.023C327.372 118.39 327.372 119.562 327.372 120.734C328.349 121.32 329.13 120.929 330.106 120.929C331.083 121.124 331.864 121.124 332.841 121.124L335.77 121.124L335.77 125.031C336.747 125.421 337.528 125.031 338.505 125.226L344.169 125.226L344.169 133.234C344.755 133.82 345.536 133.429 346.122 133.429C346.708 133.624 347.294 133.624 347.88 133.624C348.466 134.015 348.271 134.601 348.271 135.187L348.271 137.335C349.052 137.921 349.638 137.726 350.419 137.726C351.005 137.726 351.591 137.726 352.372 137.921L352.372 183.43ZM327.372 187.531L327.372 138.703C327.177 138.312 326.786 138.117 326.395 137.531L323.27 137.531L323.27 130.499C322.88 130.109 322.489 129.718 322.294 129.327C321.122 129.327 320.145 129.523 318.973 129.132L318.973 126.202C318.583 125.812 318.387 125.421 317.997 125.226C317.02 125.031 315.848 125.421 314.872 124.835L314.872 122.101C314.677 121.71 314.286 121.515 313.895 121.124L298.661 121.124C298.661 121.124 298.465 121.124 298.27 121.32L298.27 123.273C298.27 123.859 298.661 124.64 298.075 125.226C296.708 125.421 295.536 125.031 294.169 125.421L294.169 127.765C294.169 128.351 294.364 128.937 293.778 129.327L286.161 129.327C285.965 129.327 285.965 129.523 285.77 129.718L285.77 137.335C284.989 137.921 284.403 137.531 283.622 137.726C283.036 137.726 282.254 137.531 281.668 138.117L281.668 139.679C281.668 140.265 281.864 141.046 281.473 141.828L279.52 141.828C278.739 142.023 278.153 141.632 277.567 142.218L277.567 153.937L277.176 154.328L275.223 154.328C274.637 154.523 273.856 153.937 273.27 154.718L273.27 174.836L272.879 175.226L269.364 175.226C268.973 178.742 269.168 197.102 269.364 200.227L273.075 200.227C273.27 200.422 273.27 200.422 273.27 200.617L273.27 216.438L273.661 216.828C274.832 217.024 276.004 216.633 277.567 217.024C277.567 217.61 277.372 218.391 277.567 218.977C277.567 219.563 277.176 220.344 277.762 220.93C279.129 220.93 280.301 220.93 281.668 221.125L281.668 225.227L302.176 225.227C302.176 225.031 302.176 225.031 302.567 224.836L302.567 221.125C303.544 220.735 304.325 221.125 305.301 220.93C306.278 220.93 307.059 221.125 308.036 220.93C309.012 220.93 309.794 221.32 310.77 220.735L310.77 217.024C311.552 216.633 312.333 216.828 312.919 216.828C313.7 216.633 314.286 217.024 314.872 216.438L314.872 208.82C315.067 208.82 315.067 208.625 315.262 208.43C315.848 208.43 316.434 208.625 317.216 208.43C317.802 208.43 318.583 208.82 319.169 208.234L319.169 200.617C319.169 200.422 319.364 200.422 319.559 200.227L323.075 200.227C323.466 199.25 323.27 198.469 323.27 197.687L323.27 190.07C323.27 189.289 323.075 188.508 323.661 187.531L327.372 187.531Z" fill="#131F5E"/>
<path d="M367.993 226.696L367.993 125.414L383.442 125.414L383.442 140.769C387.384 133.584 391.008 128.848 394.314 126.559C397.684 124.27 401.371 123.126 405.377 123.126C411.163 123.126 417.044 124.969 423.02 128.657L417.107 144.583C412.911 142.104 408.715 140.864 404.519 140.864C400.767 140.864 397.398 142.009 394.41 144.297C391.421 146.523 389.291 149.638 388.02 153.643C386.113 159.747 385.159 166.423 385.159 173.671L385.159 226.696L367.993 226.696Z" fill="#131F5E"/>
<path d="M484.995 68.1941C485.581 69.1707 485.19 70.1473 485.19 70.9285C485.385 71.9051 485.19 72.8817 485.19 73.8582C485.19 74.6395 485.19 75.6161 485.19 76.5926C483.823 76.5926 482.651 76.5926 481.479 76.5926C481.284 76.7879 481.089 76.7879 481.089 76.9833L481.089 93.3897C479.721 93.3897 478.354 93.3897 476.987 93.585L476.987 113.898C475.62 114.484 474.253 113.702 472.885 114.288C472.885 121.124 472.885 127.765 472.885 134.601C471.518 135.187 469.956 134.601 468.588 134.992C468.588 141.828 468.588 148.664 468.588 155.5C468.002 155.89 467.221 155.695 466.635 155.695C466.049 155.695 465.463 155.695 464.877 155.695C464.291 156.086 464.487 156.867 464.487 157.257L464.487 172.297C463.12 172.297 461.752 172.297 460.776 172.297C460.581 172.492 460.385 172.492 460.385 172.687C460.385 172.687 460.385 172.883 460.385 173.078C460.385 179.523 460.385 186.164 460.19 192.805C460.19 192.805 460.19 193 459.995 193.195C458.823 193.195 457.651 193.195 456.479 193.195C456.284 193.391 456.284 193.391 456.088 193.586L456.088 221.906C456.088 222.102 456.284 222.102 456.479 222.297C457.651 222.297 458.823 222.297 459.995 222.297C460.581 223.078 460.19 223.86 460.19 224.446C460.385 225.031 460.385 225.617 460.385 226.203C461.557 226.985 462.924 226.203 464.291 226.594C464.291 226.594 464.291 226.789 464.487 226.985L464.487 230.305C464.291 230.5 464.291 230.5 464.096 230.696L414.682 230.696C414.682 230.5 414.486 230.305 414.486 230.305C414.486 229.133 414.486 227.961 414.486 226.789C415.854 226.203 417.221 226.789 418.588 226.399C418.588 225.031 418.588 223.86 418.588 222.688C418.783 222.492 418.979 222.297 418.979 222.297L426.596 222.297C427.182 221.906 426.986 221.32 426.986 220.735C426.986 218.586 426.986 216.438 426.986 214.094C428.354 214.094 429.526 214.094 430.697 214.094C430.893 213.899 431.088 213.899 431.088 213.703L431.088 197.883C431.088 197.687 431.283 197.687 431.479 197.492C432.651 197.492 433.822 197.492 434.994 197.492C435.19 197.297 435.19 197.102 435.19 197.102C435.385 196.906 435.385 196.906 435.385 196.711L435.385 176.984C435.385 176.789 435.385 176.789 435.58 176.594C436.752 176.594 437.924 176.594 439.096 176.594C439.291 176.398 439.487 176.203 439.487 176.203L439.487 156.086C440.073 155.5 440.854 155.89 441.44 155.695C442.026 155.695 442.807 155.695 443.393 155.695C443.588 155.5 443.588 155.5 443.588 155.304L443.588 135.187C444.955 134.601 446.323 135.187 447.69 134.796C447.69 129.327 447.69 123.859 447.69 118.585C449.057 117.999 450.619 118.585 451.987 117.999C451.987 111.163 451.987 104.523 451.987 97.6866C452.768 97.2959 453.354 97.4912 454.135 97.4912C454.721 97.4912 455.112 97.4912 455.698 97.4912C455.893 97.2959 455.893 97.2959 456.088 97.1006L456.088 90.2646C455.893 89.874 455.502 89.6787 455.112 89.0927C454.33 89.0927 453.159 89.0927 451.987 89.0927C451.791 88.1162 451.987 86.9443 451.987 85.9677C451.596 85.7724 451.401 85.3818 450.815 84.9911C448.666 84.9911 446.127 84.9911 443.979 84.9911C443.783 84.6005 443.588 84.6005 443.588 84.6005C443.588 83.4286 443.588 82.2567 443.588 81.0849C444.955 80.4989 446.323 81.0849 447.69 80.6942C447.69 79.327 447.69 78.1551 447.69 76.9833C447.885 76.7879 448.08 76.5926 448.08 76.5926L459.995 76.5926C460.776 75.4207 459.995 73.8582 460.385 72.6863C460.385 72.6863 460.581 72.6863 460.776 72.491L476.792 72.491C477.182 71.1238 476.792 69.7566 476.987 68.5847C477.182 68.3894 477.378 68.3894 477.378 68.3894C479.917 68.1941 482.456 68.1941 484.995 68.1941Z" fill="#131F5E"/>
<path d="M486.879 211.553L486.879 140.702L504.592 140.702L504.592 211.553L486.879 211.553ZM504.592 229.266L504.592 211.553L557.73 211.553L557.73 140.702L504.592 140.702L504.592 122.894L557.73 122.894L557.73 69.7553L575.538 69.7553L575.538 229.266L504.592 229.266Z" fill="#131F5E"/>
</svg>
