<svg width="165" height="165" viewBox="0 0 165 165" fill="none" xmlns="http://www.w3.org/2000/svg">
<path d="M109.141 46.1322L114.112 65.137M58.6886 61.8862L67.3873 81.6411M158.131 78.5833C162.151 125.061 125.151 158.055 83.3149 158.613C41.4788 159.171 12.9675 134.76 6.71686 91.8409C0.466213 48.9219 36.0079 10.3641 75.5239 6.90411C115.04 3.44414 154.111 32.1054 158.131 78.5833ZM86.9278 117.905C82.0804 106.536 87.5605 95.4127 96.8779 92.0675C106.195 88.7223 114.651 92.6712 119.695 102.975C124.74 113.279 120.059 125.689 111.507 129.585C102.955 133.482 91.7752 129.274 86.9278 117.905Z" stroke="#5F74E7" stroke-width="12"/>
</svg>
