<svg width="815" height="338" viewBox="0 0 815 338" fill="none" xmlns="http://www.w3.org/2000/svg">
<path d="M51.6504 188.915C65.553 182.613 83.4278 181.314 102.678 182.957C113.945 181.964 122.195 172.033 121.545 160.766C120.552 149.537 110.622 141.173 99.3547 142.242C69.5252 149.537 46.3033 163.745 31.0639 179.29C12.2342 197.585 5.28293 216.758 16.2064 229.057C20.7897 234.328 29.1541 237.651 39.352 239.331C52.6053 241.585 69.1814 241.279 79.7994 242.654C63.5287 247.275 35.3798 249.3 17.1613 243.609C9.86622 241.928 2.91488 246.282 1.23435 253.234C-0.713544 260.529 3.5642 267.48 10.8593 269.428C36.7548 274.126 77.5077 265.15 93.702 256.251C101.723 251.859 104.969 246.626 105.351 242.96C105.695 238.605 103.327 231.654 92.0978 229.057C82.4729 226.383 58.9073 229.706 41.0325 227.376C34.3867 226.383 28.734 225.085 25.8313 221.38C18.88 211.182 31.7131 197.891 51.6504 188.915Z" fill="#3A3531"/>
<path d="M363.849 148.811C361.824 139.569 357.203 133.267 350.595 131.548C346.203 130.593 341.925 131.242 337.648 133.916C331.957 137.239 326.724 144.19 323.058 149.193C317.099 157.443 309.46 176.311 301.134 195.255C295.863 207.439 290.86 219.432 286.238 229.362C284.634 219.088 282.954 206.141 283.565 191.589C284.214 179.939 286.888 167.717 291.586 155.113C294.183 144.19 287.232 132.923 276.308 130.593C265.385 127.919 254.117 134.565 251.787 145.871C249.114 167.412 251.138 187.311 255.416 205.186C260.763 227.682 268.364 245.251 272.985 253.234C276.957 260.529 281.311 262.782 282.305 262.782C283.565 263.203 289.905 264.157 293.228 257.55C293.877 255.831 294.908 252.202 296.513 246.932C300.179 236.008 305.832 217.713 312.478 199.839C319.429 181.658 327.373 164.395 333.026 156.488C335.28 153.815 337.953 150.186 340.932 147.513C342.88 145.489 344.905 143.846 346.929 144.496C350.595 145.489 350.252 150.836 350.901 156.145C351.856 166.763 349.832 179.29 349.182 185.592C347.578 199.189 345.248 212.786 342.231 226.383C334.63 258.199 324.051 289.672 315.801 320.8C314.082 328.095 318.703 335.046 326.075 336.765C333.026 338.025 339.977 333.747 341.582 326.491C346.623 299.296 353.154 271.758 358.196 243.953C361.481 225.085 364.498 206.141 365.453 186.891C365.797 178.985 367.095 161.11 363.849 148.811Z" fill="#3A3531"/>
<path d="M552.451 208.2C551.419 198.919 549.815 187.346 546.149 177.721C542.826 169.128 537.822 162.176 530.871 158.548C520.253 153.201 510.323 156.524 502.073 165.499C490.806 177.721 482.174 200.943 477.552 213.853L471.25 230.773C465.559 219.124 457.004 195.902 456.011 155.874C455.629 140.558 456.66 123.027 459.677 102.441C462.657 79.639 468.577 53.7434 476.903 23.9903C478.851 12.9904 471.25 2.37245 459.983 0.424561C449.059 -1.59972 438.403 6.00088 436.455 17.3445C434.087 49.4657 434.431 76.9654 435.157 101.486C436.112 122.684 437.41 141.284 439.435 157.173C447.379 220.842 465.254 244.293 466.934 246.623C469.226 250.29 472.854 251.97 476.903 247.273C478.201 245.668 480.875 240.016 480.875 239.672L489.431 218.474C493.403 208.544 500.049 191.929 508.375 180.7C512.996 174.704 517.58 169.471 523.27 172.756C526.899 174.704 528.579 178.676 530.222 183.374C532.895 191.624 533.545 201.554 533.85 209.499C534.843 228.748 533.545 247.616 530.527 265.911C527.548 284.741 522.621 302.959 515.975 320.185C513.646 327.136 517.58 334.813 524.569 336.761C531.177 339.129 538.892 335.463 541.145 328.511C546.798 309.261 550.77 289.439 552.794 268.89C554.399 248.648 554.399 228.443 552.451 208.2Z" fill="#3A3531"/>
<path d="M801.972 157.135C794.601 157.135 788.375 162.711 788.07 170.006C788.375 180.28 787.344 190.86 785.396 201.134C783.372 212.134 780.355 222.446 776.726 231.957C776.077 233.675 773.098 235.623 771.799 237.953C770.08 234.974 769.469 231.651 768.476 228.328C766.452 218.398 766.452 207.131 765.497 199.224C765.497 197.2 764.848 186.277 763.473 182.305C762.48 179.287 760.876 177.683 759.501 176.957C757.896 176.003 751.9 174.704 749.532 180.586C748.883 182.305 747.928 187.652 747.622 187.652L744.299 200.829C741.626 209.155 738.952 221.377 734.025 231.651C731.008 237.953 727.685 243.3 723.102 245.898C719.779 247.578 717.755 244.599 716.15 241.62C712.828 236.655 711.109 230.047 709.81 226.075C706.831 214.082 704.807 201.86 704.463 188.95C703.852 169.662 706.487 150.489 708.855 131.888C708.855 120.659 699.88 111.34 688.307 111.34C676.963 111.34 668.064 120.659 668.064 131.888C670.012 148.465 673.335 165.728 677.383 182.61C681.661 199.836 686.283 216.756 693.54 231.651C696.862 239.252 703.508 252.2 711.758 256.897C717.105 260.22 723.102 261.175 729.709 256.897C734.675 253.918 738.609 248.227 742.275 241.925C745.904 235.28 748.883 227.373 751.251 219.773C751.556 225.731 751.9 231.346 753.199 236.655C754.574 243.644 757.553 249.526 761.525 254.224C766.796 260.22 772.754 260.526 778.75 258.196C785.396 255.179 792.347 245.554 795.021 240.321C800.292 230.047 804.57 218.398 807.892 206.481C811.215 194.909 813.545 182.61 814.5 171.037C814.844 163.78 809.267 157.44 801.972 157.135Z" fill="#3A3531"/>
<path d="M231.545 262.782C224.593 260.873 222.645 252.584 221.27 244.258C217.948 221.036 223.638 192.887 223.638 191.932C223.638 187.311 214.319 175.012 207.368 187.96C207.024 188.915 206.069 190.939 204.77 193.957L204.606 194.331C198.87 207.355 186.065 236.428 175.246 244.258C172.229 246.626 168.295 248.574 163.673 249.605C160.045 250.255 155.996 250.255 152.024 248.88C148.396 247.275 145.722 244.907 144.08 242.31C142.056 239.026 141.406 234.977 141.101 231.654C140.451 224.359 142.056 217.064 144.729 210.113C147.403 203.505 152.33 197.891 157.371 192.238C169.176 179.003 193.482 187.96 195.451 165.693C196.444 154.464 188.5 144.19 177.27 142.891C169.593 143.541 161.649 144.496 155.347 149.843C145.378 157.787 136.823 170.391 134.149 175.967C129.528 185.287 125.9 194.606 124.525 204.536C122.882 214.811 122.882 225.085 125.556 234.633C127.198 239.98 129.222 245.557 133.156 250.255C136.823 254.532 141.101 258.199 147.747 260.529C153.705 262.477 160.351 262.477 166.271 261.178C172.229 259.88 177.92 257.55 182.198 254.532C187.545 250.904 193.771 243.609 199.423 234.977C199.118 242.31 199.118 249.949 200.416 256.901C202.746 271.147 210.041 282.071 221.996 287.38C228.947 289.977 236.586 286.654 239.26 280.046C241.819 273.057 238.19 265.456 231.545 262.782Z" fill="#3A3531"/>
<path d="M671.763 245.133C664.812 243.223 662.864 234.935 661.489 226.609C658.166 203.387 663.857 175.238 663.857 174.283C663.857 169.661 654.538 157.363 647.586 170.311C647.243 171.266 646.288 173.29 644.989 176.307L644.825 176.681C639.088 189.706 626.284 218.778 615.465 226.609C612.448 228.977 608.514 230.925 603.892 231.956C600.264 232.605 596.215 232.605 592.243 231.23C588.615 229.626 585.941 227.258 584.299 224.661C582.274 221.376 581.625 217.328 581.32 214.005C580.67 206.71 582.274 199.415 584.948 192.463C587.622 185.856 592.549 180.241 597.59 174.588C609.394 161.354 633.701 170.311 635.67 148.044C636.663 136.815 628.718 126.54 617.489 125.242C609.812 125.891 601.868 126.846 595.566 132.193C585.597 140.137 577.042 152.742 574.368 158.318C569.747 167.637 566.118 176.957 564.743 186.887C563.101 197.161 563.101 207.435 565.775 216.984C567.417 222.331 569.441 227.907 573.375 232.605C577.042 236.883 581.32 240.55 587.965 242.879C593.924 244.827 600.569 244.827 606.49 243.529C612.448 242.23 618.139 239.9 622.417 236.883C627.764 233.255 633.989 225.959 639.642 217.328C639.337 224.661 639.337 232.3 640.635 239.251C642.965 253.497 650.26 264.421 662.215 269.73C669.166 272.327 676.805 269.004 679.479 262.397C682.038 255.407 678.409 247.806 671.763 245.133Z" fill="#3A3531"/>
</svg>
