<svg width="1329" height="409" viewBox="0 0 1329 409" fill="none" xmlns="http://www.w3.org/2000/svg">
<path fill-rule="evenodd" clip-rule="evenodd" d="M129.644 145.45C129.422 145.35 129.201 145.25 128.979 145.15C128.102 147.278 125.194 148.409 125.539 151.138C125.846 151.292 126.154 151.446 126.461 151.6L129.644 145.45ZM115.135 166.995C114.843 166.872 114.551 166.749 114.258 166.625C112.917 169.083 111.575 171.54 110.233 173.997C110.44 174.111 110.647 174.225 110.854 174.34C111.9 171.676 115.197 170.284 115.135 166.995V166.995ZM151.582 190.006C151.867 186.899 152.11 184.261 152.428 180.803C148.705 186.211 148.705 186.211 151.582 190.006V190.006ZM20.2009 184.253C19.9645 187.289 19.7718 189.771 19.5786 192.253C19.8318 192.318 20.085 192.382 20.3382 192.446C21.2633 190.347 22.1878 188.247 23.1925 185.966C22.2028 185.399 21.4173 184.949 20.2009 184.253V184.253ZM37.6186 216.252C40.3963 209.997 40.6748 209.265 37.6186 206.136V216.252ZM96.8342 215.681L96.2396 215.634C95.6802 223.278 95.1213 230.922 94.5624 238.565C94.9206 238.59 95.2793 238.616 95.6375 238.64C96.036 230.987 96.4351 223.334 96.8342 215.681V215.681ZM136.638 132.715C138.727 130.51 140.513 128.692 142.202 126.787C142.547 126.398 142.526 125.685 142.674 125.121C142.072 125.114 141.437 124.975 140.874 125.118C137.175 126.057 136.558 128.905 136.638 132.715V132.715ZM95.8365 241.775C95.4616 241.797 95.0867 241.819 94.7124 241.84C95.2142 249.759 95.7159 257.679 96.2177 265.598C96.4669 265.583 96.7154 265.569 96.964 265.555C96.5886 257.629 96.2125 249.702 95.8365 241.775V241.775ZM156.501 151.609V163.716C158.397 159.702 161.197 155.695 156.501 151.609V151.609ZM137.502 124.196C139.009 123.528 140.171 123.013 141.462 122.441C140.152 119.366 138.944 116.53 137.502 113.148V124.196ZM113.668 160.606C114.023 160.807 114.378 161.007 114.734 161.207C117.032 157.841 119.397 154.515 121.549 151.058C121.825 150.615 120.998 149.486 120.385 147.915C117.835 152.733 115.751 156.67 113.668 160.606V160.606ZM86.5007 299.397C86.6305 290.814 84.3287 283.77 80.9818 282.611C82.8822 288.391 84.6915 293.893 86.5007 299.397V299.397ZM116.6 165.263C116.907 165.323 117.214 165.382 117.52 165.442C119.734 162.098 122.006 158.789 124.11 155.377C124.483 154.772 124.163 153.739 124.163 152.904L123.245 152.744C120.987 156.166 118.683 159.559 116.524 163.042C116.199 163.566 116.558 164.512 116.6 165.263V165.263ZM111.977 328.133C113.343 330.717 114.32 332.884 115.615 334.84C116.064 335.519 117.466 336.161 118.129 335.934C118.762 335.716 119.354 334.34 119.339 333.484C119.308 331.717 118.861 329.957 118.576 328.133H111.977ZM147.177 125.348C146.736 125.589 146.294 125.829 145.852 126.069C148.516 131.275 151.18 136.482 153.844 141.688C153.305 135.419 152.394 129.339 147.177 125.348V125.348ZM66.483 261.728C66.6676 261.677 66.8521 261.626 67.0367 261.575V248.574C65.0983 248.088 63.3127 247.639 61.4071 247.161C63.1293 252.103 64.8059 256.915 66.483 261.728V261.728ZM436.719 155.097C436.75 162.393 438.438 169.428 440.021 176.479C439.727 169.224 440.7 161.769 436.719 155.097V155.097ZM89.7518 128.733V144.426C95.4962 140.648 95.3278 133.535 89.7518 128.733V128.733ZM168.607 141.316C168.363 141.237 168.119 141.158 167.875 141.079C166.329 144.925 164.729 148.751 163.252 152.624C161.869 156.248 162.251 157.486 165.406 160.3C166.485 153.895 167.546 147.605 168.607 141.316V141.316ZM159.69 199.415C156.215 206.651 161.525 211.773 162.293 218.146C166.625 210.885 161.858 205.652 159.69 199.415V199.415ZM156.413 200.841C156.747 200.827 157.08 200.813 157.413 200.799C157.446 197.673 157.7 194.53 157.465 191.424C157.008 185.422 156.275 179.441 155.832 175.141C155.374 179.611 154.917 185.828 154.039 191.984C153.545 195.452 155.05 198.06 156.413 200.841V200.841ZM11.9402 197.791C12.1692 197.673 12.3976 197.556 12.6265 197.438V182.782C7.07594 184.052 5.93053 186.144 7.87358 190.041C9.17472 192.652 10.5808 195.21 11.9402 197.791V197.791ZM123.741 148.142C133.108 136.941 134.05 135.32 133.865 129.95C130.046 134.546 126.536 139.38 122.929 144.14C121.661 145.813 121.86 147.016 123.741 148.142V148.142ZM76.8448 163.09C79.702 160.4 81.9173 157.995 84.459 156.009C87.0619 153.975 87.435 151.358 87.4817 148.05C84.0686 149.984 80.8982 151.732 77.7936 153.59C77.3206 153.873 76.91 154.657 76.8869 155.226C76.7883 157.689 76.8448 160.158 76.8448 163.09V163.09ZM74.3164 155.516C71.8612 157.59 69.8581 159.163 68.0218 160.912C67.5402 161.371 67.2916 162.429 67.4249 163.117C67.9987 166.073 68.7543 168.994 69.4475 171.942C75.8874 168.143 74.4035 162.057 74.3164 155.516V155.516ZM153.365 200.231C151.047 214.045 148.829 227.265 146.611 240.485C147.122 239.791 147.437 239.036 147.633 238.252C150.115 228.393 152.454 218.495 155.118 208.685C155.974 205.536 154.898 203.195 153.365 200.231V200.231ZM65.3099 163.783C60.7975 170.118 59.6878 176.385 59.8562 183.909C62.6321 180.679 64.8826 178.124 67.039 175.492C67.4047 175.046 67.5875 174.223 67.475 173.649C66.8752 170.596 66.1554 167.567 65.3099 163.783V163.783ZM163.557 235.281C163.299 235.301 163.042 235.32 162.785 235.339C162.465 248.411 162.145 261.482 161.827 274.554C164.8 268.193 166.016 247.325 163.557 235.281V235.281ZM250.069 268.293C250.866 251.752 251.621 236.072 252.377 220.392C248.78 231.003 247.293 261.189 250.069 268.293V268.293ZM120.195 325.474C121.964 324.763 124.452 324.523 124.865 323.469C126.946 318.159 128.485 312.637 130.215 307.189C128.165 308.89 126.748 310.873 124.951 312.413C123.164 313.946 120.996 315.036 118.802 316.444C119.224 319.183 119.675 322.104 120.195 325.474V325.474ZM118.181 325.338C117.776 322.575 117.473 320.12 117.019 317.693C116.921 317.167 116.282 316.33 115.9 316.335C111.445 316.387 108.589 313.675 105.77 310.664C106.801 314.416 107.962 318.046 109.271 321.621C110.722 325.584 111.273 325.89 115.579 325.69C116.335 325.654 117.084 325.49 118.181 325.338V325.338ZM86.0595 158.58C85.838 158.342 85.6171 158.103 85.3962 157.864C82.7865 160.742 80.1663 163.612 77.5859 166.516C77.3714 166.758 77.323 167.25 77.3691 167.605C78.0571 172.88 78.7735 178.152 79.484 183.425C79.728 183.43 79.9719 183.435 80.2159 183.44C82.1636 175.154 84.1112 166.867 86.0595 158.58V158.58ZM199.013 250.792C199.337 250.651 199.662 250.51 199.986 250.37L195.363 226.287C195.075 226.331 194.786 226.374 194.498 226.418C193.528 231.206 192.509 235.983 191.63 240.787C191.455 241.741 191.445 243.123 191.996 243.741C194.199 246.213 196.652 248.461 199.013 250.792V250.792ZM158.836 191.015C159.311 189.666 159.56 189.153 159.672 188.611C161.084 181.775 162.238 174.873 163.967 168.118C164.927 164.368 163.356 161.987 161.123 159.283C158.142 169.606 157.097 179.788 158.836 191.015V191.015ZM38.1394 236.533C40.8254 232.506 43.4219 228.644 45.967 224.749C46.2358 224.337 46.4336 223.633 46.2693 223.221C44.9687 219.959 43.5724 216.734 42.0579 213.149C37.6977 221.652 37.0846 225.455 38.1394 236.533V236.533ZM276.16 182.682C277.015 174.68 277.597 166.636 278.81 158.688C279.847 151.892 281.634 145.211 283.009 138.463C283.148 137.778 282.734 136.981 282.576 136.236C281.888 136.605 280.947 136.807 280.57 137.38C279.955 138.316 279.661 139.478 279.312 140.571C274.911 154.375 275.869 168.615 276.16 182.682V182.682ZM70.323 284.896C70.7233 285.217 71.1235 285.539 71.5238 285.861C72.6709 284.368 73.7091 282.774 74.99 281.407C76.9827 279.282 77.2261 277.104 76.2225 274.382C74.8349 270.618 73.8348 266.711 72.664 262.867C72.0261 260.772 71.3779 258.681 70.7342 256.589C70.597 256.634 70.4597 256.679 70.323 256.723V284.896ZM62.6621 106.063C64.9639 110.489 74.4346 116.965 85.1875 121.465C82.7836 112.441 71.0491 104.417 62.6621 106.063V106.063ZM36.3129 252.871C35.7102 253.501 35.4114 253.665 35.3728 253.876C33.6645 263.202 31.9694 272.53 30.3222 281.867C30.2352 282.36 30.4312 283.067 30.76 283.441C32.4418 285.348 34.2112 287.18 36.3129 289.426V252.871ZM74.4623 170.021C73.0245 172.745 69.7832 174.008 70.4158 177.653C71.8571 185.959 73.2234 194.278 74.738 203.289C76.0628 198.476 77.2491 194.269 78.3507 190.041C78.5076 189.441 78.3063 188.721 78.1754 188.076C76.9919 182.26 75.7877 176.449 74.4623 170.021V170.021ZM86.9932 126.125C78.7308 133.313 77.6955 142.528 76.8719 152.536C80.4633 150.574 83.5806 148.928 86.6264 147.157C87.2026 146.822 87.7967 146.026 87.8664 145.387C88.547 139.17 88.6047 132.968 86.9932 126.125V126.125ZM15.7479 179.761C18.5855 180.84 21.2477 181.852 24.7047 183.166C25.6714 177.275 26.867 171.495 27.416 165.653C27.5654 164.06 25.7706 162.285 24.868 160.593C23.2981 161.653 21.2858 162.391 20.2384 163.832C16.7878 168.576 16.3512 174.281 15.7479 179.761V179.761ZM16.478 182.626C16.0305 182.821 15.5835 183.017 15.136 183.212C15.136 188.372 15.0408 193.536 15.234 198.689C15.2646 199.506 16.4452 200.617 17.3478 201.011C23.2462 203.586 29.1024 202.703 35.5862 200.474C32.248 196.021 29.1636 191.905 25.8853 187.532C24.1834 190.486 22.9578 192.76 21.5707 194.929C21.1629 195.567 20.2961 195.913 19.6403 196.392C19.2487 195.602 18.5999 194.838 18.5134 194.016C18.2031 191.062 18.1754 188.077 17.834 185.129C17.7325 184.253 16.9487 183.458 16.478 182.626V182.626ZM238.158 207.066C238.359 207.147 238.562 207.229 238.764 207.311C239.75 205.206 241.627 203.082 241.58 201.002C241.244 186.031 240.626 171.062 239.846 156.107C239.625 151.893 238.565 147.723 237.891 143.533C237.615 143.57 237.339 143.608 237.064 143.646C237.428 164.786 237.793 185.926 238.158 207.066V207.066ZM246.065 244.688C246.278 244.706 246.489 244.724 246.7 244.742C248.113 232.948 249.46 221.146 250.976 209.365C251.469 205.531 252.006 201.8 249.461 198.046C246.795 200.654 243.664 202.697 243.941 207.117C244.216 211.516 244.167 215.935 244.428 220.336C244.909 228.457 245.513 236.571 246.065 244.688V244.688ZM33.0024 323.094C33.6714 321.111 34.3589 319.821 34.5221 318.467C35.3699 311.446 36.1797 304.418 36.787 297.372C36.971 295.235 37.6054 292.817 34.9731 291.231C33.1045 290.104 31.5542 288.45 29.708 286.901C27.9028 299.246 27.9368 310.997 33.0024 323.094V323.094ZM192.259 91.9917C186.291 93.1449 181.442 95.5383 176.889 98.5902C176.412 98.9094 176.092 99.6429 175.944 100.244C174.022 108.075 172.461 115.956 172.967 124.093C179.306 113.545 185.646 102.996 192.259 91.9917V91.9917ZM148.071 14.8002C141.456 19.9709 120.579 46.5767 118.168 52.8301C121.883 52.3453 125.554 51.7554 129.25 51.4363C130.767 51.3053 131.204 50.7639 131.705 49.3539C134.074 42.6885 136.334 35.9468 139.311 29.5474C141.666 24.4847 145.005 19.8808 148.071 14.8002V14.8002ZM166.362 167.389C164.619 175.62 163.497 183.327 161.269 190.699C159.327 197.127 162.085 201.924 164.607 207.211C167.599 198.151 170.514 189.352 173.385 180.539C173.541 180.059 173.503 179.354 173.256 178.929C171.099 175.231 168.874 171.573 166.362 167.389V167.389ZM367.901 109.34C367.463 109.375 367.024 109.411 366.585 109.445C364.23 131.113 361.874 152.781 359.518 174.449C359.798 174.491 360.078 174.533 360.358 174.576C360.473 174.238 360.6 173.905 360.699 173.563C363.885 162.588 367.075 151.614 370.238 140.631C370.447 139.904 370.554 139.109 370.519 138.354C370.218 131.826 369.994 125.289 369.489 118.775C369.244 115.608 368.448 112.483 367.901 109.34V109.34ZM41.7949 197.301C42.0965 197.481 42.3987 197.661 42.6998 197.84C43.3578 196.771 44.3885 195.775 44.6123 194.622C45.9607 187.666 47.4827 180.714 48.2504 173.684C49.0324 166.512 48.8208 159.271 45.5443 152.538C45.0489 151.521 44.2979 150.628 43.3671 149.229C38.2208 165.608 38.576 181.411 41.7949 197.301V197.301ZM469.045 250.874C469.019 251.205 468.918 251.671 468.957 252.124C470.319 267.743 472.267 283.268 476.97 298.297C477.764 300.832 479.017 303.259 480.34 305.573C480.817 306.405 482.126 306.76 483.054 307.332C483.562 306.456 484.407 305.62 484.522 304.695C485.156 299.65 485.67 294.586 486.061 289.516C486.121 288.735 485.521 287.681 484.901 287.104C479.693 282.257 476.273 276.276 474.164 269.603C472.207 263.41 470.718 257.069 469.045 250.874V250.874ZM130.495 88.9548C128.559 77.4274 128.379 65.9226 130.588 53.7339C126.09 54.4328 122.034 54.947 118.04 55.7672C117.065 55.9674 115.934 56.9994 115.491 57.9395C113.157 62.8851 114.84 67.3609 117.704 71.4424C121.815 77.2987 126.135 83.0079 130.495 88.9548V88.9548ZM197.657 87.647C197.889 87.9638 198.119 88.2795 198.35 88.5958C201.68 88.5958 205.018 88.7441 208.339 88.5675C217.818 88.0654 222.896 83.6335 224.782 74.3374C225.125 72.6498 225.315 70.9224 225.45 69.2037C225.766 65.1718 222.951 62.8562 219.142 64.3078C217.052 65.1042 214.809 66.2943 213.405 67.9576C207.987 74.3784 202.88 81.0617 197.657 87.647V87.647ZM68.5385 177.664C66.1964 180.282 64.657 182.404 62.7221 184.065C60.1481 186.274 59.6169 188.859 60.1308 192.002C61.6793 201.478 63.0497 210.984 64.6911 220.443C65.4962 225.084 66.7478 229.647 67.7974 234.245C69.3656 228.134 70.5156 222.139 71.5797 216.129C72.0279 213.597 72.8243 210.974 72.5504 208.493C71.4459 198.49 69.9856 188.527 68.5385 177.664V177.664ZM118.365 145.328C114.024 140.988 109.851 136.328 105.147 132.289C102.151 129.716 98.4463 127.91 94.8964 126.074C93.5624 125.384 91.7698 125.582 90.4474 125.408C92.3414 129.459 94.3808 133.044 95.7182 136.873C97.4646 141.874 97.3377 142.155 92.6949 144.795C89.8677 146.403 88.7425 148.362 89.4767 151.826C99.0068 145.082 106.016 149.185 111.878 157.607C114.096 153.409 116.058 149.695 118.365 145.328V145.328ZM15.5916 203.601C15.7969 205.528 15.9151 207.225 16.166 208.902C17.5283 218.005 18.7983 227.134 23.0899 235.475C24.5017 238.219 25.0842 238.43 27.1911 236.192C32.1396 230.936 36.1335 225.304 35.3803 217.409C34.9575 212.975 35.3042 208.468 35.3042 203.757C28.5655 205.436 22.219 205.831 15.5916 203.601V203.601ZM149.328 122.572C151.064 125.604 152.994 127.914 153.76 130.561C154.894 134.485 155.498 138.629 155.779 142.716C156.055 146.745 158.613 149.363 160.391 153.158C160.892 151.786 161.174 151.181 161.335 150.545C164.581 137.718 167.926 124.913 170.955 112.035C171.589 109.345 171.048 106.38 171.048 103.542C170.79 103.417 170.532 103.292 170.274 103.167C163.196 109.725 156.118 116.282 149.328 122.572V122.572ZM47.3639 194.015C47.511 194.196 47.6581 194.377 47.8051 194.558C50.3653 192.435 52.8938 190.274 55.4966 188.205C57.1173 186.917 57.7799 185.437 57.7569 183.281C57.6871 176.655 58.7327 170.156 62.5398 164.597C64.2274 162.133 64.3393 160.136 63.3455 157.526C60.6273 150.384 57.3935 143.569 52.1515 137.885C49.9074 135.451 49.0128 135.483 47.4481 138.29C46.3771 140.211 45.5633 142.274 44.6134 144.264C43.9184 145.721 44.3862 146.767 45.2455 148.128C46.9665 150.853 48.6097 153.746 49.5965 156.794C51.7097 163.318 51.4017 170.086 50.427 176.774C49.5855 182.547 48.3986 188.27 47.3639 194.015V194.015ZM133.345 199.072C139.498 196.705 141.886 191.809 145.01 187.594C145.964 186.307 145.984 185.316 145.107 184.003C140.898 177.701 136.787 171.333 132.586 165.024C130.734 162.243 128.75 159.55 126.719 156.667C124.346 160.289 122.232 163.71 119.902 166.976C118.921 168.353 118.956 169.359 119.645 170.851C122.567 177.197 125.209 183.675 128.177 189.999C129.659 193.156 131.625 196.085 133.345 199.072V199.072ZM386.137 336.063C395.407 331.478 412.304 293.531 410.903 281.474C410.613 281.835 410.363 282.108 410.155 282.411C402.55 293.409 393.713 303.194 382.595 310.793C381.906 311.264 381.441 312.715 381.566 313.613C382.147 317.797 382.895 321.961 383.737 326.102C384.397 329.349 385.281 332.551 386.137 336.063V336.063ZM57.7269 189.641C54.4256 192.275 51.573 194.655 48.608 196.885C45.4278 199.278 43.453 205.053 44.2991 209.034C46.782 220.708 53.1187 230.611 58.8383 240.776C59.862 242.596 61.8298 243.993 63.6114 245.224C64.3629 245.743 65.7604 245.328 66.8643 245.338C66.8718 244.454 67.0776 243.516 66.8568 242.694C62.218 225.435 58.596 208.001 57.7269 189.641V189.641ZM79.916 278.893C80.3053 278.848 80.7523 278.848 81.1733 278.742C85.1817 277.73 85.1557 277.731 86.1097 281.888C87.589 288.337 88.908 294.832 90.6602 301.207C92.5513 308.087 95.0734 314.774 100.424 319.845C102.196 321.524 104.385 322.763 106.616 324.371C100.029 299.638 94.4286 275.425 92.7768 250.961C88.6174 259.997 84.297 269.379 79.916 278.893V278.893ZM102.195 227.454C99.4377 231.63 97.4917 235.209 98.0195 239.782C98.4255 243.299 98.1602 246.889 98.4434 250.426C99.6101 264.969 100.801 279.511 102.135 294.039C102.669 299.861 104.457 305.334 108.22 309.952C110.262 312.458 112.77 314.185 116.535 313.886C111.763 285.124 107.039 256.651 102.195 227.454V227.454ZM174.878 181.733C174.436 182.776 174.162 183.268 174.013 183.795C171.767 191.731 169.599 199.688 167.266 207.597C166.564 209.974 167.097 211.801 168.531 213.697C174.036 220.98 179.435 228.344 184.916 235.646C186.161 237.304 187.575 238.835 189.304 240.891C190.722 233.948 192.028 227.6 193.297 221.244C193.385 220.8 193.263 220.275 193.118 219.827C188.806 206.502 182.462 194.154 174.878 181.733V181.733ZM88.19 195.742C92.2399 195.794 101.094 188.514 102.617 183.988C105.091 176.632 107.666 169.31 110.113 161.945C110.369 161.176 110.39 159.928 109.939 159.394C108.09 157.207 106.236 154.921 103.978 153.207C99.7191 149.976 92.417 151.056 89.0153 155.119C88.6687 155.534 88.4686 156.126 88.3474 156.668C86.0658 166.868 83.8194 177.075 81.5361 187.274C80.7154 190.941 84.4181 195.694 88.19 195.742V195.742ZM144.028 128.264C139.271 133.307 134.019 137.736 132.381 144.805C132.042 146.271 131.382 147.781 130.48 148.975C127.698 152.657 128.687 155.505 131.281 159.035C136.995 166.811 142.117 175.022 147.753 183.461C149.926 178.637 153.351 174.767 153.608 169.353C153.872 163.796 154.54 158.26 154.923 152.707C155.034 151.1 155.272 149.214 154.599 147.889C151.262 141.323 147.64 134.903 144.028 128.264V128.264ZM485.19 284.64C485.521 284.492 485.852 284.343 486.184 284.195C486.238 283.477 486.318 282.759 486.344 282.039C487.107 261.064 485.994 240.198 482.495 219.492C481.601 214.203 480.389 208.965 479.163 203.741C478.959 202.872 477.94 201.593 477.275 201.58C476.334 201.561 474.922 202.313 474.505 203.137C473.395 205.333 472.17 207.693 471.95 210.077C471.155 218.661 470.195 227.29 470.338 235.885C470.554 248.813 472.73 261.53 478.261 273.371C480.116 277.34 482.855 280.896 485.19 284.64V284.64ZM180.965 335.081C184.23 334.248 185.245 331.964 186.16 329.839C196.086 306.791 201.6 282.869 200.163 257.611C200.123 256.896 199.99 255.962 199.527 255.532C196.609 252.824 193.587 250.23 190.299 247.332C185.945 276.509 181.289 305.309 180.965 335.081V335.081ZM434 161.107C426.842 178.229 423.892 196.239 421.562 214.377C419.225 232.564 417.022 250.767 414.761 268.964C415.95 268.002 416.622 266.876 417.199 265.704C426.327 247.191 433.227 227.913 437.329 207.644C439.343 197.697 440.649 187.91 437.347 177.87C435.58 172.497 435.075 166.708 434 161.107V161.107ZM120.31 338.661C118.445 341.364 117.373 340.434 116.385 339.152C115.04 337.404 113.484 335.762 112.45 333.843C110.229 329.726 107.725 326.193 102.774 324.98C101.211 324.598 99.7785 323.253 98.538 322.082C96.6053 320.257 94.8872 318.204 92.8276 315.976C93.0197 316.809 93.0629 317.361 93.2705 317.842C95.476 322.94 97.67 328.045 99.9406 333.115C103.967 342.109 108.75 350.839 111.93 360.121C116.241 372.707 112.966 381.538 102.622 389.868C102.417 390.034 102.294 390.303 101.688 391.132C105.22 395.108 108.504 399.516 112.503 403.132C117.434 407.588 122.3 405.986 123.867 399.5C124.8 395.64 125.089 391.514 124.956 387.531C124.727 380.633 124.045 373.743 123.37 366.867C122.481 357.811 121.416 348.772 120.31 338.661V338.661ZM4.58729 190.801C4.20779 192.767 3.7164 194.718 3.46667 196.7C2.05018 207.939 3.80695 218.91 6.39654 229.798C10.4909 247.013 16.6297 263.374 26.657 278.098C27.0371 278.656 27.5446 279.128 28.2806 279.969C28.5211 278.526 28.6497 277.583 28.8394 276.652C30.9215 266.415 33.2879 256.226 34.9922 245.926C35.9074 240.393 35.6906 234.672 35.9842 229.035C32.7025 232.713 30.076 236.34 27.4518 239.97C26.1143 241.819 24.6828 242.057 23.4526 239.967C21.5182 236.679 19.3289 233.462 17.9505 229.941C14.7657 221.804 14.242 213.114 13.4357 204.507C13.3521 203.612 13.19 202.363 12.5937 201.936C8.73409 199.169 6.57821 195.307 4.58729 190.801V190.801ZM99.6886 192.112C96.7385 193.864 93.5728 196.266 90.0183 197.718C85.8386 199.426 82.49 197.278 79.9892 193.075C77.5606 202.59 75.2005 211.175 75.4047 220.395C75.5402 226.537 74.9312 233.037 72.9483 238.788C71.0255 244.365 70.9563 249.286 72.822 254.568C73.0129 255.109 73.1277 255.677 73.2846 256.23C75.0402 262.42 76.797 268.61 78.7164 275.375C79.574 273.972 80.1421 273.21 80.5383 272.366C84.0836 264.819 87.7344 257.316 91.0414 249.665C92.0675 247.291 92.3668 244.522 92.6009 241.898C93.5456 231.307 93.9719 220.655 95.3191 210.118C96.122 203.835 98.2819 197.727 99.6886 192.112V192.112ZM205.907 349.858C207.308 347.543 208.394 345.864 209.365 344.122C218.685 327.418 223.955 309.298 227.797 290.709C231.636 272.136 233.376 253.29 234.714 234.404C235.018 230.102 235.166 225.789 235.386 221.482C221.027 246.238 202.562 327.098 205.907 349.858V349.858ZM214.697 163.151C214.452 163.154 214.207 163.156 213.961 163.158C213.217 164.698 212.438 166.221 211.735 167.78C204.318 184.239 200.015 201.648 196.16 219.188C195.944 220.168 196.092 221.283 196.291 222.292C198.176 231.88 200.089 241.462 202.06 251.033C202.256 251.987 202.653 253.16 203.361 253.704C206.509 256.122 210.479 255.517 212.691 252.211C213.791 250.567 214.792 248.657 215.137 246.741C216.459 239.39 218.292 232.006 218.462 224.6C218.732 212.813 218.051 200.985 217.34 189.2C216.815 180.496 215.603 171.833 214.697 163.151V163.151ZM52.2611 296.162C56.5722 296.128 60.5766 294.939 63.8779 292.35C65.7679 290.869 68.2629 288.379 68.1642 286.463C67.8303 279.947 68.0708 273.309 65.2528 267.022C59.8424 254.948 54.8951 242.668 49.6328 230.527C48.3663 227.604 46.6118 227.545 44.8787 230.252C43.487 232.426 42.1478 234.704 41.2527 237.109C40.0029 240.467 38.3067 243.997 38.3453 247.436C38.4901 260.205 39.3114 272.966 39.7889 285.734C40.0589 292.964 40.567 293.726 47.7244 295.487C49.2026 295.851 50.7471 295.943 52.2611 296.162V296.162ZM194.515 215.877C194.924 214.408 195.248 213.357 195.511 212.291C199.625 195.607 204.646 179.202 211.506 163.44C213.163 159.632 213.812 156.156 212.843 152.163C211.713 147.507 211.071 142.732 209.882 138.095C209.05 134.848 207.363 134.348 204.513 136.056C203.451 136.693 202.438 137.455 201.522 138.29C189.593 149.165 182.195 162.959 176.365 177.726C176.066 178.483 176.507 179.726 176.952 180.555C180.307 186.81 183.922 192.932 187.11 199.269C189.753 204.522 191.923 210.013 194.515 215.877V215.877ZM128.412 323.341C131.721 321.558 134.613 320.247 137.248 318.538C148.496 311.241 155.007 300.445 159.216 288.058C159.88 286.104 160.309 283.94 160.248 281.891C159.731 264.493 159.516 247.097 161.54 229.779C162.377 222.619 159.183 216.564 157.273 210.074C156.75 210.968 156.504 211.848 156.29 212.735C149.043 242.665 141.859 272.612 134.509 302.517C132.847 309.279 130.608 315.899 128.412 323.341V323.341ZM100.313 387.935C107.174 383.032 111.158 376.94 110.817 368.627C110.463 359.989 107.074 352.192 103.269 344.649C96.2633 330.757 89.8389 316.64 84.9989 301.833C82.9543 295.576 80.8336 289.344 78.5918 282.634C77.0115 283.762 75.7225 284.691 74.4225 285.606C71.4846 287.673 70.5618 290.317 70.9799 294C73.1306 312.939 76.7952 331.525 82.9889 349.582C87.5117 362.767 92.9464 375.532 100.313 387.935V387.935ZM178.958 335.151C179.064 334.363 179.173 333.908 179.182 333.45C179.739 304.385 183.257 275.633 188.213 247.026C188.409 245.9 188.018 244.385 187.35 243.443C183.682 238.276 179.783 233.274 176.081 228.131C172.789 223.558 169.65 218.874 166.266 213.983C164.65 220.227 164.445 226.07 165.692 232.261C169.13 249.321 169.017 266.383 164.447 283.335C163.601 286.471 163.653 289.9 163.639 293.195C163.628 295.965 164.121 298.738 164.397 301.509C165.384 311.462 167.991 320.921 172.987 329.649C174.329 331.994 175.745 334.267 178.958 335.151V335.151ZM132.992 54.0923C132.685 55.5865 132.361 56.7841 132.206 58.003C131.927 60.1927 131.667 62.3905 131.543 64.5929C130.459 83.9486 135.522 102.031 143.007 119.6C144.49 123.079 145.66 123.257 148.396 120.65C153.818 115.484 158.891 109.836 164.857 105.392C170.04 101.531 171.134 97.5179 169.689 91.5312C167.367 81.9182 164.646 72.576 158.073 64.9126C151.523 57.2781 142.923 54.2879 132.992 54.0923V54.0923ZM242.086 208.728C238.414 212.577 237.698 214.714 237.606 219.454C237.556 222.046 237.354 224.635 237.243 227.226C236.178 251.941 233.631 276.471 227.819 300.568C223.364 319.044 217.537 336.985 206.551 352.813C206.231 353.274 205.814 353.843 205.839 354.341C206.159 360.834 206.884 367.279 211.416 372.406C215.231 376.723 220.236 376.686 223.784 372.201C225.84 369.601 227.603 366.619 228.833 363.542C234.99 348.149 237.33 331.862 239.349 315.558C241.096 301.449 242.443 287.287 243.814 273.134C244.432 266.755 245.265 260.312 244.964 253.947C244.407 242.159 243.029 230.412 242.125 218.638C241.873 215.353 242.086 212.032 242.086 208.728V208.728ZM133.501 51.0248C134.245 51.2239 134.51 51.3237 134.782 51.363C135.828 51.5096 136.877 51.6308 137.923 51.7733C147.889 53.1325 156.143 57.5142 162.197 65.6825C168.698 74.454 171.153 84.6539 172.48 95.2393C172.596 96.1651 172.797 97.0798 172.958 97.9998C173.241 97.9963 173.524 97.9929 173.806 97.9906C174.126 96.7462 174.543 95.5187 174.75 94.2564C176.044 86.3997 177.485 78.5604 178.511 70.6679C180.382 56.2727 181.831 41.7956 179.819 27.3277C179.065 21.9147 177.484 16.3868 175.099 11.4874C171.878 4.87214 164.886 3.71266 159.099 8.18092C145.025 19.0474 138.199 34.2685 133.501 51.0248V51.0248ZM177.098 94.6576C182.351 92.7709 187.478 91.0163 192.527 89.0598C193.913 88.5225 195.382 87.6268 196.27 86.4754C201.132 80.17 205.554 73.5046 210.671 67.4209C214.186 63.2412 218.515 59.6271 224.984 61.7227C224.984 61.1762 225.014 60.8068 224.977 60.4438C224.91 59.776 224.832 59.1065 224.71 58.4474C222.8 48.2031 218.681 38.8481 213.089 30.1327C206.905 20.4937 199.549 11.9618 189.431 6.20016C182.551 2.28134 175.362 1.19919 169.802 3.18053C176.569 7.25691 179.632 10.9414 181.504 18.3445C182.51 22.3204 183.157 26.4522 183.392 30.547C184.237 45.2042 182.033 59.6762 180.253 74.1556C179.401 81.0889 178.139 87.9719 177.098 94.6576V94.6576ZM6.28811 182.544C7.78707 181.905 8.8875 181.167 10.0727 180.989C12.3941 180.64 12.9749 179.403 13.3457 177.185C13.99 173.335 14.7899 169.37 16.4192 165.87C17.7792 162.949 20.0954 160.24 22.5829 158.144C25.2452 155.899 28.2494 157.099 29.3977 160.433C29.9802 162.125 30.4791 164.063 30.238 165.78C29.4277 171.545 28.2604 177.259 27.2493 182.997C27.093 183.885 26.6086 185.13 27.0054 185.633C29.6307 188.964 32.455 192.136 35.4564 195.643C35.5516 194.511 35.6473 193.682 35.6877 192.852C36.1041 184.22 36.212 175.56 36.9958 166.961C38.0229 155.7 40.5606 144.786 46.6684 135.013C48.4868 132.103 48.7302 132.05 51.4386 134.21C58.4853 139.83 62.2036 147.569 65.1219 155.81C65.5176 156.928 65.8953 158.052 66.3371 159.335C68.2848 157.854 69.7503 156.373 71.5146 155.488C73.9882 154.246 74.6924 152.373 74.9566 149.799C75.9082 140.517 78.0485 131.643 85.1984 124.312C81.0758 122.033 77.1799 119.829 73.2384 117.711C68.4417 115.134 64.1991 111.949 60.9059 107.516C60.3713 106.797 58.6595 106.212 57.8895 106.529C53.3055 108.422 48.4072 109.984 44.4064 112.787C27.4743 124.653 15.5927 140.538 8.84771 160.109C6.39711 167.219 5.23267 174.607 6.28811 182.544V182.544ZM552.624 298.849C555.098 298.545 557.605 298.405 560.04 297.91C571.888 295.504 576.366 288.699 573.994 276.875C573.919 276.498 573.872 276.112 573.756 275.747C569.171 261.386 564.606 247.018 559.952 232.679C559.426 231.059 558.499 229.534 557.567 228.089C553.787 222.225 548.76 221.578 544.054 226.716C541.356 229.659 539.009 233.044 537.079 236.548C532.399 245.042 528.205 253.804 523.495 262.282C521.829 265.281 521.547 268.054 522.097 271.306C525.23 289.789 535.033 298.649 552.624 298.849V298.849ZM371.118 145.713L370.201 145.704C363.277 166.618 358.079 187.858 356.401 209.968C355.086 227.297 352.708 244.542 351.002 261.845C350.243 269.548 347.848 277.096 348.954 284.988C350.072 292.964 351.846 300.697 356.581 307.395C360.823 313.395 366.393 315.247 373.207 313.152C379.034 311.362 379.174 311.083 378.281 304.987C373.674 273.568 371.462 241.954 371.016 210.225C370.758 191.966 371.066 173.699 371.117 155.436C371.126 152.195 371.118 148.954 371.118 145.713V145.713ZM180.54 337.963C182.138 346.621 183.592 355.213 185.362 363.74C186.087 367.226 188.557 368.345 191.371 366.157C197.413 361.459 203.107 356.939 203.128 347.57C203.154 336.121 204.858 324.624 206.494 313.242C211.451 278.743 221.612 245.701 235.107 213.636C235.506 212.687 235.814 211.631 235.855 210.612C236.065 205.43 236.325 200.242 236.289 195.058C236.168 177.669 235.938 160.28 235.728 142.891C235.687 139.507 233.76 138.357 230.723 140.042C229.325 140.817 227.933 141.878 226.991 143.145C223.73 147.534 220.623 152.042 217.575 156.584C217.117 157.268 217.114 158.394 217.203 159.285C217.624 163.488 218.374 167.669 218.598 171.88C219.327 185.594 220.04 199.311 220.449 213.037C220.82 225.458 220.062 237.834 216.84 249.91C214.627 258.206 211.44 259.941 203.202 257.832C203.124 257.812 203.022 257.888 202.769 257.975C202.723 258.545 202.597 259.189 202.632 259.825C203.355 272.774 201.891 285.514 199.014 298.123C196.622 308.611 194.146 319.075 189.262 328.764C187.424 332.409 185.25 335.797 180.54 337.963V337.963ZM228.568 72.494C228.348 73.5917 228.13 74.6895 227.909 75.7872C226.037 85.0758 218.779 91.3043 209.278 91.5837C206.025 91.6795 202.754 91.4948 199.506 91.2472C197.09 91.0631 195.39 91.586 194.07 93.9032C187.467 105.493 180.645 116.958 174.064 128.561C172.821 130.753 171.987 133.308 171.54 135.799C170.012 144.296 168.727 152.836 167.39 161.366C167.231 162.385 166.925 163.662 167.359 164.445C169.601 168.489 172.061 172.412 174.567 176.579C177.405 170.424 179.865 164.603 182.727 158.987C187.653 149.321 193.474 140.235 202.87 134.269C210.35 129.519 209.215 130.577 211.677 137.231C213.558 142.313 214.828 147.622 216.472 153.176C221.367 145.569 226.638 138.598 235.596 134.655C233.631 114.159 235.02 92.933 228.568 72.494V72.494ZM114.61 56.2797C109.331 58.0423 104.872 59.4084 100.501 61.0134C89.0188 65.2289 77.7924 69.9788 68.4365 78.1598C63.552 82.4319 59.5165 87.4092 59.2547 94.2033C59.137 97.253 59.7599 100.584 61.0541 103.307C61.5536 104.359 64.8393 104.134 66.8671 104.402C76.7018 105.697 83.5126 110.846 87.0665 120.18C87.4016 121.059 87.7044 121.951 87.9645 122.677C103.223 122.504 110.428 134.507 119.298 142.8C124.297 137.436 129.215 132.205 134.054 126.9C134.632 126.267 134.995 125.26 135.085 124.386C135.774 117.694 134.692 111.182 132.879 104.764C129.622 93.2326 123.519 83.1389 116.963 73.2772C113.636 68.2722 110.847 63.1731 114.61 56.2797V56.2797ZM98.3246 227.721C98.5714 227.773 98.8188 227.825 99.0657 227.876C99.538 226.477 99.9245 225.04 100.514 223.692C100.865 222.892 101.534 222.232 102.06 221.51C102.515 222.244 102.977 222.973 103.417 223.715C103.512 223.875 103.545 224.078 103.577 224.267C107.312 246.129 111.079 267.987 114.758 289.86C116.075 297.687 117.178 305.551 118.378 313.399C118.646 313.591 118.914 313.783 119.182 313.975C121.231 311.944 123.854 310.234 125.208 307.812C128.049 302.735 130.912 297.489 132.556 291.952C141.569 261.58 146.718 230.43 150.668 199.044C151.196 194.846 149.654 191.899 147.507 188.634C146.917 189.386 146.5 190.025 145.979 190.565C142.52 194.151 139.189 197.88 135.517 201.234C132.654 203.851 132.242 203.585 130.794 200.084C129.694 197.423 128.663 194.731 127.477 192.11C124.286 185.058 121.029 178.037 117.62 170.615C113.699 175.345 110.075 179.433 106.806 183.79C105.252 185.861 103.816 188.325 103.298 190.814C101.718 198.42 100.455 206.102 99.3742 213.798C98.7283 218.397 98.655 223.077 98.3246 227.721V227.721ZM68.9774 291.905L68.185 291.463C65.754 294.621 63.0698 297.618 60.9342 300.965C51.3619 315.964 40.9528 330.337 29.9923 344.354C26.1403 349.28 23.2346 355.065 20.577 360.775C17.8645 366.6 16.8345 372.923 18.8323 379.306C22.1475 389.896 30.0373 395.32 40.372 397.424C53.9607 400.19 67.5096 399.042 80.9293 395.99C86.9137 394.628 92.7019 392.687 98.1083 389.294C89.7783 374.211 83.3176 358.557 78.7279 342.136C74.1226 325.658 71.0664 308.877 68.9774 291.905V291.905ZM305.833 263.917C305.291 262.625 304.824 261.883 304.667 261.081C302.69 250.915 300.088 240.815 298.963 230.553C297.068 213.274 296.437 195.858 294.652 178.564C293.571 168.088 291.422 157.713 289.515 147.337C289.077 144.953 287.66 142.749 286.693 140.462C286.356 140.505 286.019 140.549 285.681 140.592C284.285 146.941 282.378 153.228 281.595 159.652C279.783 174.517 278.267 189.428 277.099 204.358C276.06 217.646 275.879 230.873 277.717 244.259C279.721 258.871 279.836 273.742 280.721 288.503C280.785 289.58 280.419 290.683 280.253 291.774C279.867 291.775 279.482 291.776 279.097 291.778C276.792 285.27 276.749 278.276 275.331 270.907C275.13 271.9 274.997 272.246 275 272.592C275.152 292.967 275.187 313.374 278.285 333.557C279.261 339.912 281.318 346.291 284.001 352.144C287.216 359.157 293.421 360.313 299.407 355.387C302.599 352.761 305.62 349.463 307.554 345.846C318.749 324.903 324.675 302.719 321.849 278.755C321.147 272.796 319.443 267.082 316.297 261.905C314.341 258.685 312.712 258.43 309.762 260.715C308.568 261.638 307.42 262.62 305.833 263.917V263.917ZM380.775 309.273C381.629 308.806 381.981 308.658 382.282 308.441C383.14 307.825 384.003 307.21 384.82 306.542C395.97 297.427 404.528 286.111 412.248 274.094C412.788 273.254 413.037 272.136 413.142 271.118C415.243 250.661 417.162 230.185 419.415 209.745C421.382 191.913 424.933 174.435 432.521 157.998C432.977 157.01 433.288 155.72 433.073 154.696C430.508 142.487 428.237 130.192 424.999 118.16C423.512 112.633 420.603 107.274 417.38 102.486C413.142 96.1876 406.576 94.6287 400.141 97.2547C395.808 99.0237 392.309 102.048 389.975 105.915C385.171 113.875 380.829 122.114 376.353 130.269C373.75 135.01 372.585 140.023 373.367 145.498C373.757 148.237 373.65 151.06 373.626 153.844C373.509 167.202 373.369 180.558 373.191 193.915C372.835 220.567 374.289 247.139 376.795 273.657C377.905 285.402 379.403 297.11 380.775 309.273V309.273ZM521.415 262.139C526.082 253.259 530.201 245.016 534.715 236.994C537.152 232.664 540.17 228.644 543.127 224.633C544.18 223.203 545.712 222.037 547.22 221.05C550.846 218.68 554.718 219.031 557.175 222.593C559.54 226.023 561.564 229.859 562.902 233.801C567.783 248.181 572.36 262.666 576.961 277.139C579.899 286.38 575.957 295.066 566.576 298.605C555.358 302.839 544.109 302.169 533.388 296.601C527.193 293.384 523.957 287.709 521.988 281.281C520.934 277.836 520.246 274.28 519.296 270.379C517.391 273.228 515.792 275.928 513.887 278.388C511.658 281.265 509.348 284.126 506.741 286.65C501.538 291.689 495.544 293.578 488.664 289.912C487.372 297.127 486.133 304.049 484.895 310.972C484.542 311.058 484.19 311.146 483.837 311.233C482.938 310.362 481.928 309.579 481.155 308.607C474.688 300.488 471.092 291.017 469.723 280.931C468.044 268.568 467.11 256.093 466.176 243.643C464.824 225.622 464.087 207.532 459.173 189.99C458.37 187.121 457.18 184.362 456.168 181.551C455.717 181.561 455.265 181.57 454.814 181.58C452.052 188.746 449.291 195.912 446.529 203.078C446.184 203.123 445.838 203.168 445.493 203.212C444.366 200.913 443.238 198.613 441.836 195.754C441.44 197.75 441.141 199.264 440.839 200.777C435.511 227.403 427.613 253.103 413.908 276.775C412.62 279 412.417 281.887 411.87 284.501C409.191 297.318 406.097 309.997 400.066 321.749C396.704 328.299 392.57 334.282 387.154 339.315C385.088 341.235 384.45 341.066 383.917 338.262C382.321 329.873 380.823 321.465 379.25 312.862C377.568 313.483 375.986 314.133 374.362 314.654C366.214 317.27 358.801 314.802 353.814 307.814C350.252 302.822 348.865 297.045 347.882 291.129C347.788 290.566 347.697 290.002 347.589 289.441C347.578 289.382 347.467 289.341 347.064 289.032C344.153 305.219 341.254 321.23 336.79 336.871L335.664 336.899C335.329 335.821 334.818 334.763 334.683 333.66C331.963 311.336 331.944 288.948 333.837 266.589C336.302 237.476 339.518 208.425 341.768 179.298C342.927 164.282 342.698 149.159 343.096 134.084C342.632 133.97 342.168 133.858 341.705 133.745C340.897 135.638 339.757 137.46 339.337 139.435C337.261 149.204 335.152 158.976 333.475 168.817C330.652 185.376 329.136 202.177 324.158 218.324C323.168 221.532 321.981 224.684 320.757 227.813C320.448 228.602 319.649 229.2 319.076 229.886C318.52 229.17 317.764 228.534 317.441 227.725C313.854 218.757 312.525 209.349 312.666 199.776C312.865 186.226 313.53 172.684 313.721 159.134C313.829 151.444 313.55 143.657 310.8 136.379C309.266 132.318 307.078 128.339 304.429 124.906C300.808 120.217 296.435 120.378 293.029 125.231C290.69 128.563 289.153 132.477 287.431 136.21C287.101 136.925 287.345 138.122 287.717 138.913C293.573 151.377 295.852 164.701 297.032 178.246C298.701 197.391 300.033 216.566 301.757 235.706C302.29 241.618 303.618 247.46 304.625 253.327C304.769 254.167 305.064 255.01 305.44 255.779C306.883 258.737 308.935 259.036 311.246 256.673C313.617 254.25 313.78 254.236 315.706 256.954C323.582 268.067 325.896 280.686 325.163 293.936C324.037 314.305 318.006 333.172 306.647 350.18C304.757 353.01 302.281 355.6 299.62 357.732C293.432 362.689 286.524 361.575 282.937 354.504C280.375 349.454 278.775 343.775 277.575 338.199C273.467 319.116 272.871 299.689 272.855 280.261C272.841 263.054 273.513 245.841 273.221 228.642C273.112 222.2 271.461 215.712 269.938 209.383C267.717 200.152 265.015 191.035 262.423 181.896C261.946 180.215 261.018 178.662 260.298 177.049C259.994 177.086 259.689 177.123 259.385 177.159C258.112 182.937 256.924 188.736 255.545 194.488C253.37 203.557 253.811 212.748 253.682 221.968C253.453 238.391 252.573 254.806 251.936 271.224C251.888 272.445 251.601 273.657 251.338 275.478C247.847 272.829 248.767 268.885 246.872 265.683C246.274 271.195 245.829 276.319 245.147 281.412C242.124 303.97 239.401 326.578 235.75 349.035C234.605 356.077 231.004 362.746 228.291 369.491C227.566 371.296 226.14 372.919 224.743 374.335C220.409 378.727 214.737 378.603 210.533 374.082C207.018 370.301 205.474 365.544 204.231 360.67C203.97 359.652 203.775 358.617 203.473 357.236C201.339 359.49 199.489 361.641 197.431 363.568C194.91 365.928 192.177 368.058 189.607 370.369C187.936 371.871 186.91 371.546 185.838 369.639C182.535 363.76 180.802 357.403 179.999 350.78C179.56 347.162 179.501 343.498 179.153 339.866C179.075 339.043 178.702 338.065 178.128 337.504C175.772 335.2 172.805 333.373 170.939 330.747C165.647 323.305 163.518 314.596 162.111 305.715C161.531 302.055 161.159 298.362 160.611 294.048C159.171 296.685 158.037 298.839 156.833 300.953C150.264 312.488 140.831 320.708 128.478 325.612C127.463 326.014 126.614 327.079 125.924 328.011C121.938 333.388 122.404 339.177 123.602 345.455C126.269 359.428 128.188 373.552 127.759 387.833C127.62 392.488 127.012 397.262 125.722 401.722C123.512 409.365 117.561 411.204 111.33 406.212C108.16 403.672 105.661 400.264 103 397.129C101.709 395.608 100.745 393.812 99.9394 392.602C93.1114 394.744 86.672 397.303 79.9927 398.748C66.6699 401.63 53.1066 402.848 39.7336 399.364C20.6254 394.386 12.1657 378.016 18.8266 359.413C20.3001 355.299 22.2934 351.216 24.8068 347.656C33.954 334.705 43.4553 322.004 52.7524 309.158C55.6615 305.139 58.3492 300.961 61.5813 296.202C53.8477 299.394 47.0213 298.452 40.0514 294.732C39.5398 306.031 38.8731 316.927 33.1587 326.562C32.7278 326.592 32.2964 326.623 31.865 326.653C30.8615 323.328 29.6671 320.048 28.8908 316.671C26.8029 307.59 26.6824 298.365 27.5077 289.137C27.7759 286.131 27.3393 283.766 25.3599 281.238C18.5959 272.603 14.1878 262.661 10.7239 252.328C5.4328 236.545 0.961289 220.547 0.0829054 203.8C-0.241225 197.612 0.280729 191.49 3.53242 185.935C3.84905 185.395 4.01919 184.668 3.9892 184.041C2.89166 161.049 12.2966 142.041 26.4759 124.89C29.0384 121.79 31.8933 118.896 34.8583 116.174C41.6316 109.957 49.2954 105.362 58.7962 104.182C53.6874 90.6493 60.7952 81.7647 70.2636 74.0459C79.9402 66.1575 91.5299 61.8895 103.092 57.6712C104.894 57.0138 106.683 56.1452 108.55 55.8745C114.201 55.0544 117.274 51.5979 120 46.7891C127.096 34.2737 136.051 23.118 146.382 13.0676C152.549 7.06876 159.979 3.3935 168.069 1.04797C177.093 -1.5688 185.347 0.970637 193.005 5.83194C201.86 11.4522 208.67 19.0549 214.023 28.0261C220.761 39.3202 226.207 51.1142 228.168 64.276C228.265 64.927 228.455 65.6011 228.76 66.1806C234.134 76.3678 235.969 87.4571 236.436 98.7328C236.941 110.923 236.75 123.142 236.929 135.347C236.948 136.644 237.111 138.093 237.708 139.201C241.817 146.819 243.66 155.073 243.937 163.57C244.287 174.315 244.004 185.08 243.994 195.837C243.993 196.852 243.994 197.867 243.994 199.037C251.377 194.521 251.377 194.521 252.922 194.977C254.555 187.786 255.635 180.421 259.344 172.86C267.437 185.182 270.424 198.368 273.456 211.721C273.456 208.969 273.444 206.216 273.458 203.465C273.473 200.677 273.582 197.889 273.528 195.105C273.317 184.249 272.781 173.391 272.894 162.539C273.003 152.154 274.76 142.053 280.865 133.213C282.079 131.456 283.211 130.374 284.715 133.394C285.292 132.256 285.653 131.384 286.148 130.596C287.676 128.16 289.018 125.554 290.86 123.377C296.285 116.962 301.719 117.148 306.722 123.945C312.292 131.516 315.164 140.245 315.393 149.508C315.729 163.038 315.39 176.587 315.176 190.126C314.993 201.677 315.39 213.153 318.397 225.536C320.001 223.34 321.714 221.911 322.211 220.142C323.709 214.801 324.964 209.368 325.903 203.899C329.086 185.348 331.831 166.717 335.313 148.224C336.489 141.977 339.327 136.038 341.493 129.989C341.836 129.029 342.636 128.232 343.224 127.36C343.558 127.423 343.891 127.485 344.224 127.547C344.412 129.856 344.692 132.162 344.774 134.474C345.481 154.393 344.654 174.264 342.823 194.101C340.342 220.992 337.591 247.862 335.449 274.781C334.053 292.324 334.088 309.929 336.233 327.46C336.286 327.898 336.392 328.329 336.594 329.402C337.047 328.34 337.35 327.878 337.442 327.377C340.597 310.28 344.045 293.228 346.722 276.056C347.883 268.608 347.359 260.906 347.759 253.328C348.777 234.091 351.901 215.142 355.37 196.219C356.699 188.97 356.845 181.509 357.647 174.156C360.171 151.037 362.75 127.924 365.313 104.808C365.355 104.427 365.371 104.005 365.549 103.686C365.884 103.086 366.328 102.547 366.726 101.982C367.173 102.516 367.891 102.991 368.023 103.595C369.051 108.285 370.097 112.978 370.879 117.713C371.66 122.446 372.141 127.227 372.858 132.789C373.556 131.164 374.004 130.177 374.409 129.174C378.193 119.786 382.384 110.619 388.918 102.75C390.08 101.349 391.336 99.9985 392.702 98.7986C401.145 91.3776 410.428 91.7118 418.317 99.7514C423.809 105.351 426.767 112.38 428.567 119.806C431.096 130.238 433.134 140.789 435.424 151.48C437.487 149.578 437.994 151.304 438.601 152.966C442.501 163.639 443.569 174.695 442.584 185.914C442.145 190.912 443.571 195.117 446.304 199.723C446.856 198.406 447.345 197.521 447.606 196.572C449.24 190.648 450.796 184.704 452.456 178.788C452.687 177.966 453.356 177.267 453.822 176.512C454.502 177.123 455.353 177.623 455.836 178.363C460.717 185.849 462.994 194.278 464.346 202.972C465.418 209.87 466.176 216.817 467.184 224.587C467.654 220.9 467.901 217.982 468.417 215.113C469.438 209.437 471.401 204.163 475.623 200.003C478.094 197.567 478.711 197.694 479.913 200.86C484.495 212.934 486.696 225.542 487.345 238.342C488.127 253.781 488.282 269.255 488.583 284.715C488.617 286.493 489.202 287.306 490.734 287.902C493.602 289.018 496.485 288.984 499.108 287.569C501.617 286.215 503.993 284.525 506.176 282.682C507.997 281.147 509.468 279.193 511.065 277.4C516.664 271.114 519.186 264.348 518.881 255.352C518.005 229.518 523.514 204.524 532.077 180.225C534.419 173.581 537.765 167.375 542.46 162.032C543.842 160.459 545.419 158.986 547.133 157.792C550.72 155.289 554.782 154.951 558.135 157.717C561.411 160.419 564.493 163.637 566.792 167.191C573.596 177.711 577.174 189.647 580.907 201.489C583.247 208.916 585.619 216.338 588.254 223.663C588.913 225.492 590.347 227.379 591.949 228.454C594.497 230.164 596.918 229.525 598.794 227.059C600.001 225.472 600.774 223.561 601.815 221.839C605.982 214.947 610.139 208.048 614.399 201.214C615.09 200.105 616.22 199.236 617.249 198.379C622.9 193.673 629.231 194.029 633.593 200.01C641.939 211.453 643.975 224.169 639.87 237.791C637.481 245.721 633.296 252.688 628.571 259.421C625.765 263.42 623.342 267.699 620.898 271.94C619.352 274.624 619.048 277.569 619.931 280.592C620.86 283.77 622.827 285.158 626.001 284.223C628.257 283.559 630.462 282.42 632.42 281.094C639.672 276.183 645.34 269.728 650.489 262.667C654.493 257.176 659 252.029 663.559 246.978C665.107 245.262 667.368 244.015 669.527 243.064C673.424 241.345 676.946 242.576 679.275 246.153C680.003 247.27 680.58 248.514 681.041 249.768C681.637 251.389 682.093 253.066 682.531 254.739C685.63 266.585 688.157 268.593 700.284 269.055C702.787 269.151 704.7 268.394 706.373 266.5C709.171 263.332 712.046 260.219 715.053 257.252C722.626 249.781 729.492 248.399 739.175 252.86C753.518 259.467 768.234 265.003 783.413 269.332C799.522 273.926 815.72 274.636 832.129 270.908C857.919 265.048 884.187 263.14 910.513 262.349C951.607 261.114 992.71 259.952 1033.82 259.494C1073.79 259.049 1113.77 259.41 1153.75 259.649C1179.4 259.801 1205.05 260.359 1230.69 260.761C1262.29 261.255 1293.89 261.767 1325.49 262.329C1326.67 262.35 1327.83 262.98 1329 263.326C1327.79 263.745 1326.57 264.541 1325.36 264.529C1293.85 264.213 1262.34 263.806 1230.83 263.431C1213.54 263.224 1196.24 262.959 1178.95 262.869C1132.43 262.628 1085.92 262.477 1039.4 262.27C1017.88 262.176 996.351 261.831 974.827 261.966C940.14 262.183 905.46 263.041 870.973 267.12C858.211 268.629 845.465 270.667 832.899 273.344C812.916 277.599 793.537 275.897 774.501 269.039C763.753 265.166 753.144 260.904 742.447 256.886C740.025 255.977 737.527 255.232 735.014 254.615C728.951 253.127 723.338 254.25 718.422 258.112C715.86 260.124 713.526 262.429 711.117 264.632C708.708 266.836 706.486 269.274 703.916 271.266C698.225 275.68 692.891 275.255 688.195 269.74C685.996 267.157 684.474 263.953 682.882 260.907C681.149 257.589 679.875 254.026 678.074 250.75C674.615 244.464 669.469 243.667 664.553 248.839C661.058 252.516 658.051 256.659 654.856 260.619C649.734 266.964 644.748 273.424 639.46 279.627C637.888 281.472 635.618 282.834 633.457 284.04C627.891 287.147 622.609 286.372 617.611 282.51C615.951 281.229 615.545 280.012 616.623 278.137C619.829 272.556 623.047 266.977 626.056 261.289C629.827 254.166 633.864 247.13 636.941 239.705C641.62 228.414 639.984 217.259 634.379 206.605C633.626 205.174 632.627 203.835 631.557 202.616C627.901 198.449 623.227 197.613 619.081 201.233C615.598 204.275 612.584 208.033 610.026 211.911C607.022 216.468 604.794 221.53 602.106 226.304C601.127 228.046 599.963 229.748 598.591 231.191C596.064 233.846 593.262 233.915 590.868 231.132C589.015 228.979 587.254 226.515 586.278 223.882C583.041 215.145 580.394 206.187 577.111 197.469C573.628 188.218 569.848 179.067 565.835 170.035C564.462 166.944 562.307 164.041 559.956 161.58C555.523 156.94 549.928 156.814 545.903 161.751C542.306 166.164 539.233 171.181 536.816 176.347C524.336 203.018 519.642 231.228 520.987 260.538C520.998 260.79 521.115 261.035 521.415 262.139V262.139Z" fill="#9C9C9C"/>
</svg>
